<?xml version="1.0" standalone="no"?>
<!DOCTYPE svg PUBLIC "-//W3C//DTD SVG 20010904//EN"
 "http://www.w3.org/TR/2001/REC-SVG-20010904/DTD/svg10.dtd">
<svg version="1.0" xmlns="http://www.w3.org/2000/svg"
 width="2588.000000pt" height="2959.000000pt" viewBox="0 0 2588.000000 2959.000000"
 preserveAspectRatio="xMidYMid meet">

<g transform="translate(0.000000,2959.000000) scale(0.100000,-0.100000)"
fill="#FFFFFF" stroke="none">
<path d="M8250 27781 c-112 -16 -184 -52 -257 -128 -62 -65 -111 -200 -100
-279 8 -62 25 -118 36 -122 6 -2 11 -15 11 -28 0 -13 5 -24 10 -24 6 0 10 -5
10 -11 0 -16 47 -69 54 -62 3 4 6 -1 6 -10 0 -9 11 -19 24 -23 14 -3 27 -12
30 -20 3 -8 17 -14 31 -14 14 0 25 -4 25 -10 0 -5 14 -10 31 -10 17 0 28 -4
24 -10 -4 -6 42 -10 132 -10 93 0 133 3 123 10 -10 7 5 9 50 8 56 -1 60 -2 25
-7 -26 -4 13 -9 114 -14 90 -4 158 -11 161 -18 4 -5 33 -13 66 -16 32 -3 62
-10 65 -15 3 -4 25 -11 50 -14 24 -4 46 -10 47 -15 2 -5 15 -9 29 -9 13 0 31
-7 39 -15 9 -8 24 -15 35 -15 10 0 19 -4 19 -10 0 -5 16 -12 35 -16 19 -3 35
-10 35 -15 0 -5 9 -9 19 -9 11 0 21 -3 23 -7 2 -5 25 -19 53 -33 27 -14 56
-31 63 -37 7 -7 20 -13 28 -13 8 0 14 -4 14 -10 0 -5 7 -10 15 -10 8 0 15 -4
15 -9 0 -5 10 -13 22 -17 12 -3 28 -13 36 -20 7 -8 20 -14 27 -14 8 0 17 -9
20 -20 3 -11 17 -23 30 -26 14 -3 23 -11 22 -17 -1 -6 3 -11 9 -12 5 0 44 -33
85 -72 40 -40 80 -73 87 -73 6 0 12 -6 12 -13 0 -6 29 -42 65 -79 36 -37 65
-71 65 -76 0 -4 8 -15 18 -23 9 -9 23 -25 31 -37 8 -11 18 -19 22 -17 4 3 10
-6 13 -20 4 -14 11 -25 16 -25 6 0 10 -6 10 -13 0 -8 9 -22 20 -32 11 -10 20
-24 20 -32 0 -7 5 -13 10 -13 6 0 10 -6 10 -13 0 -7 11 -24 24 -38 13 -14 27
-35 30 -47 4 -12 11 -22 14 -22 4 0 16 -20 27 -45 11 -25 23 -45 26 -45 4 0
10 -11 13 -25 4 -14 10 -25 15 -25 5 0 12 -13 16 -30 4 -16 11 -30 16 -30 5 0
9 -7 9 -15 0 -8 5 -15 10 -15 6 0 10 -6 10 -12 1 -7 9 -31 20 -53 11 -22 19
-46 20 -52 0 -7 3 -13 8 -13 8 0 28 -43 38 -82 3 -16 10 -28 14 -28 5 0 11
-13 15 -30 4 -16 11 -30 16 -30 5 0 8 -3 7 -7 -4 -16 14 -73 23 -73 5 0 9 -11
9 -24 0 -14 5 -28 10 -31 6 -3 10 -14 10 -23 0 -9 6 -29 14 -43 7 -14 16 -42
20 -62 4 -21 11 -37 16 -37 6 0 10 -13 10 -29 0 -17 4 -32 9 -35 5 -4 12 -24
16 -46 4 -22 10 -42 15 -45 4 -3 11 -28 15 -55 4 -27 11 -52 15 -55 4 -3 11
-28 15 -55 4 -27 11 -52 16 -56 5 -3 9 -18 9 -34 0 -16 4 -31 9 -34 5 -3 12
-33 16 -66 4 -33 10 -60 15 -60 4 0 11 -29 15 -65 3 -36 10 -65 14 -65 5 0 11
-30 14 -67 4 -38 11 -69 17 -71 5 -2 10 -30 10 -63 0 -32 4 -59 9 -59 4 0 11
-36 14 -80 3 -45 9 -86 15 -93 5 -7 12 -57 15 -111 4 -55 11 -104 17 -110 5
-5 10 -22 10 -37 0 -21 -7 -31 -30 -41 -16 -7 -30 -16 -30 -20 0 -5 -9 -8 -21
-8 -22 0 -81 -29 -87 -42 -2 -5 -10 -8 -18 -8 -12 0 -67 -27 -256 -128 -27
-14 -48 -29 -48 -33 0 -5 -8 -9 -19 -9 -10 0 -24 -7 -31 -15 -7 -8 -17 -15
-22 -15 -5 0 -24 -11 -42 -25 -18 -14 -35 -25 -38 -25 -13 0 -234 -151 -301
-206 -9 -8 -20 -14 -23 -14 -4 0 -17 -11 -29 -24 -12 -13 -26 -25 -32 -27 -10
-4 -73 -57 -177 -149 -71 -63 -309 -300 -301 -300 4 0 -12 -16 -34 -37 -23
-20 -41 -40 -41 -44 0 -4 -20 -29 -44 -55 -25 -26 -43 -51 -40 -56 3 -4 1 -8
-3 -8 -13 0 -133 -162 -133 -179 0 -5 -7 -11 -15 -15 -8 -3 -15 -12 -15 -21 0
-8 -4 -15 -9 -15 -5 0 -11 -8 -15 -17 -6 -21 -25 -51 -43 -71 -7 -7 -13 -20
-13 -28 0 -8 -3 -14 -7 -14 -5 0 -17 -19 -28 -43 -11 -23 -22 -44 -26 -47 -6
-6 -89 -177 -114 -235 -9 -22 -20 -49 -25 -60 -4 -11 -15 -36 -24 -57 -9 -20
-16 -40 -16 -46 0 -5 -7 -23 -15 -38 -8 -16 -15 -37 -15 -47 0 -9 -4 -25 -9
-35 -14 -25 -39 -112 -43 -147 -1 -16 -6 -32 -10 -35 -4 -3 -12 -30 -17 -60
-5 -30 -14 -75 -19 -100 -12 -53 -18 -96 -32 -205 -12 -100 -12 -548 0 -635 5
-36 14 -99 20 -140 6 -41 15 -84 20 -95 4 -11 11 -42 14 -69 4 -28 10 -52 14
-55 4 -4 9 -22 11 -41 1 -19 7 -39 11 -45 5 -5 8 -14 9 -20 0 -30 13 -75 21
-75 6 0 10 -12 10 -27 0 -16 6 -40 14 -55 8 -15 17 -40 21 -57 4 -17 11 -33
16 -36 5 -4 9 -15 9 -26 0 -10 4 -19 9 -19 5 0 11 -13 14 -29 7 -34 58 -145
69 -149 4 -2 8 -10 8 -18 0 -15 38 -95 49 -104 6 -5 31 -57 31 -65 0 -2 -42
-37 -92 -78 -84 -67 -160 -117 -180 -117 -7 0 -51 -19 -155 -66 -17 -8 -34
-14 -38 -14 -3 0 -30 -11 -58 -24 -154 -71 -187 -86 -197 -86 -5 0 -10 -4 -10
-10 0 -5 -11 -10 -25 -10 -14 0 -25 -4 -25 -9 0 -5 -13 -12 -30 -16 -16 -4
-30 -11 -30 -16 0 -5 -8 -9 -19 -9 -10 0 -45 -13 -77 -30 -32 -16 -65 -30 -71
-30 -7 0 -13 -4 -13 -10 0 -5 -7 -10 -15 -10 -9 0 -30 -8 -48 -17 -18 -9 -34
-17 -37 -18 -16 -2 -70 -31 -70 -37 0 -5 -6 -8 -14 -8 -19 0 -170 -71 -174
-82 -2 -4 -9 -8 -16 -8 -14 0 -518 -249 -526 -260 -3 -4 -17 -10 -32 -14 -16
-3 -28 -11 -28 -16 0 -6 -7 -10 -15 -10 -8 0 -15 -4 -15 -10 0 -5 -7 -10 -15
-10 -9 0 -41 -14 -73 -31 -31 -17 -84 -45 -117 -63 -33 -17 -61 -34 -63 -38
-2 -5 -10 -8 -17 -8 -8 0 -20 -7 -29 -15 -8 -9 -17 -14 -19 -13 -3 3 -87 -42
-172 -93 -27 -16 -61 -34 -75 -40 -13 -6 -27 -13 -30 -17 -6 -8 -58 -37 -107
-61 -18 -8 -33 -19 -33 -23 0 -4 -5 -8 -11 -8 -10 0 -127 -67 -139 -80 -3 -3
-22 -14 -42 -25 -21 -11 -38 -23 -38 -27 0 -5 -8 -8 -19 -8 -10 0 -30 -11 -45
-25 -15 -14 -31 -25 -36 -25 -5 0 -15 -6 -22 -12 -7 -7 -30 -22 -51 -32 -20
-11 -37 -23 -37 -28 0 -4 -5 -8 -11 -8 -16 0 -209 -120 -209 -130 0 -4 -11
-11 -25 -14 -14 -4 -25 -11 -25 -16 0 -6 -7 -10 -15 -10 -8 0 -15 -4 -15 -10
0 -5 -5 -10 -10 -10 -12 0 -73 -41 -78 -52 -2 -5 -7 -8 -11 -8 -11 0 -163 -99
-176 -115 -5 -6 -31 -24 -56 -38 -25 -15 -54 -36 -64 -47 -10 -11 -24 -20 -31
-20 -7 0 -14 -4 -16 -8 -1 -4 -20 -18 -40 -31 -21 -12 -38 -27 -38 -32 0 -5
-6 -9 -14 -9 -8 0 -16 -4 -18 -8 -1 -4 -20 -18 -40 -31 -21 -12 -38 -27 -38
-32 0 -5 -6 -9 -12 -9 -7 0 -27 -13 -44 -28 -18 -15 -42 -34 -54 -42 -13 -8
-40 -28 -60 -45 -21 -16 -73 -57 -116 -90 -43 -33 -91 -72 -107 -87 -16 -16
-32 -28 -36 -28 -3 0 -20 -13 -37 -28 -18 -16 -44 -39 -60 -51 -45 -35 -124
-103 -165 -141 -21 -19 -52 -46 -70 -60 -17 -13 -51 -44 -76 -67 -24 -24 -47
-43 -51 -43 -4 0 -31 -25 -61 -55 -30 -30 -58 -55 -63 -55 -5 0 -7 -4 -3 -9 3
-5 -3 -12 -12 -15 -17 -6 -391 -379 -508 -507 -59 -64 -164 -184 -185 -211 -8
-11 -27 -32 -42 -48 -16 -16 -28 -31 -28 -35 0 -3 -20 -27 -45 -53 -25 -26
-45 -51 -45 -57 0 -6 -9 -17 -20 -25 -11 -8 -20 -20 -20 -27 0 -6 -6 -16 -14
-20 -7 -4 -43 -48 -80 -98 -37 -49 -73 -97 -79 -105 -25 -32 -87 -120 -87
-125 0 -2 -11 -16 -25 -31 -14 -15 -25 -33 -25 -40 0 -7 -3 -14 -8 -16 -4 -2
-23 -28 -42 -58 -19 -30 -37 -57 -40 -60 -10 -9 -206 -333 -226 -375 -10 -22
-21 -42 -24 -45 -28 -28 -290 -570 -290 -600 0 -10 -5 -21 -34 -77 -9 -17 -16
-38 -16 -47 0 -9 -4 -24 -10 -34 -20 -34 -49 -120 -43 -126 4 -3 1 -6 -5 -6
-6 0 -14 -17 -18 -37 -4 -21 -10 -42 -14 -48 -9 -13 -50 -144 -50 -162 0 -7
-4 -21 -9 -31 -5 -9 -16 -43 -25 -75 -9 -31 -22 -81 -31 -110 -8 -28 -16 -67
-17 -85 -1 -19 -6 -36 -10 -38 -8 -5 -24 -101 -20 -121 2 -7 -1 -13 -7 -13 -5
0 -11 -19 -14 -42 -3 -24 -10 -63 -16 -87 -7 -24 -12 -59 -13 -77 -1 -19 -4
-34 -8 -34 -13 0 -42 -216 -59 -433 -15 -185 13 -551 54 -702 7 -27 16 -69 20
-92 4 -24 11 -45 16 -49 5 -3 9 -18 9 -34 0 -16 5 -32 10 -35 6 -3 10 -15 10
-27 0 -11 6 -34 13 -51 8 -18 24 -63 37 -102 21 -65 175 -394 189 -405 3 -3
22 -35 41 -72 19 -38 38 -68 42 -68 4 0 8 -4 8 -9 0 -19 195 -297 239 -342 9
-9 34 -38 55 -65 48 -60 271 -282 345 -344 29 -25 63 -53 75 -64 48 -42 163
-126 173 -126 6 0 13 -7 17 -15 3 -8 14 -15 25 -15 10 0 21 -6 24 -13 11 -28
319 -202 497 -281 36 -15 79 -34 97 -42 17 -8 37 -14 45 -14 7 0 22 -7 32 -15
11 -8 29 -15 41 -15 12 0 25 -4 31 -8 11 -10 101 -41 129 -45 11 -1 25 -6 31
-9 6 -4 26 -10 44 -13 18 -3 40 -10 49 -14 9 -5 36 -12 61 -16 25 -3 59 -10
75 -15 55 -16 135 -32 198 -41 34 -4 91 -13 127 -18 36 -6 111 -11 168 -12 56
-1 105 -5 108 -10 7 -13 411 -12 419 1 3 6 51 10 108 10 115 1 256 18 482 60
28 5 79 14 115 20 36 5 76 14 90 19 14 6 44 13 68 16 23 4 42 11 42 16 0 5 16
9 35 9 20 0 52 7 72 15 19 8 46 15 59 15 12 0 26 5 29 10 3 6 18 10 33 10 15
0 40 7 56 15 15 8 40 15 55 15 14 0 39 7 55 15 15 8 37 15 47 15 11 0 19 5 19
10 0 6 14 10 31 10 17 0 45 6 62 14 63 28 175 59 191 53 9 -4 16 -17 16 -31 0
-14 5 -28 10 -31 6 -3 10 -16 10 -28 0 -12 7 -35 15 -51 8 -15 15 -39 15 -52
0 -12 4 -25 9 -28 5 -4 12 -24 16 -46 4 -22 11 -40 16 -40 5 0 9 -8 9 -18 0
-27 61 -196 74 -204 6 -4 8 -8 4 -8 -8 0 42 -143 68 -194 8 -16 14 -33 14 -39
0 -5 6 -23 14 -40 7 -18 24 -57 36 -87 13 -30 34 -80 47 -110 13 -30 31 -71
40 -90 30 -70 87 -189 172 -358 111 -223 113 -226 123 -230 4 -2 8 -12 8 -22
0 -9 7 -23 15 -30 8 -7 15 -18 15 -25 0 -8 3 -15 8 -17 4 -1 25 -38 47 -81 22
-42 43 -77 47 -77 4 0 8 -7 8 -15 0 -8 4 -15 8 -15 4 0 13 -15 20 -33 7 -18
20 -42 29 -53 10 -10 27 -36 38 -56 11 -21 23 -38 27 -38 5 0 8 -7 8 -15 0 -9
7 -18 15 -21 8 -4 15 -15 15 -25 0 -11 7 -22 15 -25 8 -4 15 -12 15 -20 0 -8
5 -14 10 -14 6 0 10 -6 10 -14 0 -8 6 -21 13 -28 7 -7 22 -27 32 -45 10 -18
22 -30 27 -27 5 3 7 2 6 -3 -3 -11 20 -52 51 -89 14 -17 44 -57 66 -88 22 -31
43 -56 47 -56 4 0 8 -7 8 -15 0 -8 4 -15 8 -15 5 0 13 -8 18 -19 9 -19 51 -73
89 -117 11 -12 31 -37 45 -55 14 -18 36 -44 50 -58 14 -15 42 -48 63 -74 22
-26 66 -75 98 -109 32 -33 59 -63 59 -66 0 -14 402 -399 485 -464 16 -12 37
-30 45 -38 30 -28 122 -105 139 -114 9 -6 27 -20 41 -33 14 -13 28 -23 32 -23
5 0 16 -8 26 -17 10 -10 30 -27 46 -38 15 -11 57 -42 92 -68 35 -26 64 -44 64
-40 0 4 6 0 13 -9 11 -13 114 -82 263 -176 28 -18 56 -32 62 -32 5 0 12 -4 14
-9 2 -5 28 -22 58 -39 30 -16 87 -47 125 -68 148 -82 449 -225 580 -276 28
-10 64 -25 82 -33 17 -8 37 -15 45 -15 8 0 32 -9 54 -19 22 -11 54 -23 70 -27
16 -4 34 -10 39 -14 6 -4 26 -11 45 -15 19 -3 49 -13 66 -20 17 -8 57 -22 90
-31 59 -16 103 -29 204 -60 30 -9 73 -19 95 -21 22 -3 45 -9 50 -13 6 -4 26
-11 45 -14 19 -4 62 -13 95 -21 124 -29 211 -45 248 -47 21 -1 41 -6 43 -10 3
-4 19 -8 35 -8 17 0 49 -5 72 -10 23 -6 78 -14 121 -18 55 -5 81 -12 86 -22
21 -41 29 -69 35 -112 3 -26 10 -50 16 -53 5 -4 9 -19 9 -34 0 -25 19 -102 38
-151 3 -8 11 -42 18 -75 26 -124 37 -170 44 -175 4 -3 10 -29 13 -59 4 -30 11
-57 16 -60 4 -3 11 -24 14 -46 6 -49 24 -123 36 -150 6 -11 12 -41 16 -67 3
-27 10 -48 15 -48 4 0 10 -17 13 -37 12 -83 27 -147 37 -157 5 -5 10 -26 10
-46 1 -19 7 -53 15 -75 8 -22 17 -59 21 -83 3 -23 10 -45 15 -48 5 -3 9 -18 9
-34 0 -16 5 -32 10 -35 6 -3 10 -15 10 -26 0 -29 42 -203 50 -209 4 -3 10 -30
13 -60 4 -30 11 -56 17 -58 5 -2 10 -21 10 -42 0 -21 4 -41 9 -44 5 -3 12 -31
16 -61 3 -30 10 -55 14 -55 5 0 11 -25 14 -56 3 -31 11 -62 16 -67 6 -6 11
-26 11 -43 0 -18 4 -35 9 -38 4 -3 11 -26 14 -52 2 -26 9 -49 14 -53 6 -3 13
-29 16 -58 3 -28 10 -60 15 -70 9 -17 26 -89 39 -161 3 -17 9 -32 13 -32 4 0
10 -27 14 -60 4 -33 11 -62 17 -65 5 -4 7 -10 4 -15 -3 -5 -1 -11 4 -15 14 -8
31 28 31 69 0 19 3 36 8 38 7 3 48 163 54 213 2 11 7 23 11 26 4 3 11 31 14
62 3 32 10 57 14 57 5 0 9 8 9 18 0 9 7 35 15 57 8 22 14 57 15 77 0 20 5 38
11 40 6 2 13 32 16 66 3 34 10 62 14 62 5 0 9 13 9 28 0 15 5 33 11 39 5 5 13
36 16 67 3 31 9 56 13 56 5 0 11 23 15 52 4 29 11 59 16 68 9 16 27 92 36 150
3 19 9 37 13 40 7 5 23 71 43 175 6 33 15 63 20 66 5 3 11 34 14 68 3 33 10
61 14 61 5 0 9 8 9 18 0 9 7 35 15 57 8 22 14 57 15 77 0 20 5 38 10 40 6 2
14 29 17 61 3 31 10 57 14 57 5 0 9 16 9 35 0 19 4 35 10 35 5 0 12 27 16 60
4 33 10 60 15 60 8 0 23 84 19 104 -1 5 3 12 9 15 5 4 13 29 16 56 4 28 11 55
15 60 4 6 10 24 13 40 3 17 13 59 22 95 9 36 22 93 28 127 6 35 15 63 19 63 4
0 8 13 8 29 0 17 4 32 9 35 4 3 11 23 15 45 7 47 7 46 174 56 57 3 112 10 122
15 10 6 40 10 67 10 50 0 205 24 259 41 17 5 41 9 53 9 13 0 60 8 105 19 44
10 117 27 161 36 44 10 85 21 90 25 6 4 26 10 45 13 19 3 60 12 90 22 30 9 72
21 93 26 21 5 45 13 55 18 9 5 44 17 77 27 33 9 64 21 69 26 6 4 19 8 30 8 12
0 34 7 50 15 15 8 33 15 38 15 6 0 36 11 67 24 31 14 87 37 125 51 66 26 105
44 116 55 3 3 13 6 23 8 18 3 341 165 439 220 103 59 198 119 193 124 -3 3 1
5 7 5 14 0 201 123 206 135 2 5 8 8 14 8 5 0 15 6 22 12 8 7 24 20 36 28 12 8
28 20 34 25 6 6 32 26 59 43 26 18 47 37 47 42 0 6 5 10 11 10 11 0 111 78
170 132 14 13 52 45 84 73 75 63 349 338 435 434 36 40 70 79 77 86 18 19 114
135 165 200 26 33 52 65 58 72 5 7 10 17 10 23 0 5 4 10 9 10 5 0 20 17 32 38
13 20 26 38 30 40 4 2 23 27 41 55 34 54 36 57 68 96 11 13 17 29 13 35 -3 6
-3 8 1 4 6 -5 76 84 76 97 0 1 20 33 45 71 25 37 45 72 45 76 0 5 8 17 18 28
9 10 28 40 42 67 14 26 31 54 38 61 6 7 12 20 12 28 0 8 3 14 8 14 4 0 12 10
18 23 6 12 27 52 47 88 20 37 33 69 30 73 -4 3 -1 6 5 6 11 0 50 74 50 94 0 5
4 12 9 15 9 7 73 133 73 145 0 4 7 14 15 22 8 9 15 24 15 35 0 10 4 19 9 19 5
0 12 13 16 30 4 16 11 32 16 35 5 4 9 15 9 26 0 10 4 19 9 19 5 0 13 10 16 23
6 22 24 63 50 122 8 16 11 33 8 39 -3 5 -1 6 5 2 6 -3 13 6 17 24 4 16 11 32
16 35 5 4 9 14 9 23 0 10 9 34 20 55 11 20 20 48 20 62 0 14 3 25 8 25 9 0 43
81 45 109 1 12 5 21 9 21 4 0 11 18 14 40 4 22 10 40 13 40 9 0 41 90 44 119
1 11 5 21 9 21 4 0 11 18 14 40 4 22 10 40 15 40 4 0 11 17 15 38 4 20 11 45
15 54 5 9 10 28 11 42 1 15 6 26 9 26 4 0 10 15 14 32 3 18 10 42 14 53 5 11
16 45 24 75 9 30 24 78 32 105 8 28 17 59 18 70 2 11 9 33 15 48 7 16 12 41
12 56 0 15 4 31 10 37 10 10 26 73 37 144 3 19 10 40 15 47 5 6 12 37 15 67 3
31 9 56 14 56 4 0 11 25 14 55 7 49 10 55 31 55 12 0 25 -4 28 -9 3 -5 22 -12
41 -15 19 -4 35 -11 35 -16 0 -8 51 -24 66 -20 4 1 10 -2 13 -7 11 -15 69 -43
90 -43 12 0 21 -4 21 -10 0 -5 17 -12 38 -16 20 -4 39 -10 42 -14 8 -10 89
-40 110 -40 11 0 20 -4 20 -10 0 -5 16 -12 35 -16 19 -3 35 -10 35 -15 0 -5 7
-9 16 -9 9 0 30 -6 47 -13 18 -8 57 -22 87 -32 30 -10 60 -21 65 -26 6 -4 27
-10 48 -14 20 -4 40 -11 43 -16 3 -5 16 -9 30 -9 13 0 32 -4 42 -9 31 -17 141
-51 166 -51 13 0 26 -5 28 -10 2 -6 27 -13 56 -17 28 -3 52 -10 52 -14 0 -5 8
-9 19 -9 10 0 35 -7 54 -15 20 -8 55 -15 77 -15 23 0 39 -4 35 -9 -3 -6 21
-13 55 -17 33 -4 63 -11 66 -15 3 -5 25 -9 50 -9 24 0 44 -4 44 -8 0 -10 0
-10 90 -18 36 -4 67 -10 70 -14 3 -5 37 -11 75 -15 39 -3 90 -10 115 -16 40
-8 143 -16 454 -36 153 -9 749 42 766 67 3 4 34 10 70 14 36 3 67 11 68 16 2
6 21 10 41 10 21 0 41 3 45 7 3 4 14 8 24 9 56 8 82 16 82 24 0 6 10 10 22 10
31 0 138 33 138 42 0 4 10 8 23 8 12 0 35 7 51 15 15 8 33 15 38 15 5 0 28 8
51 19 23 10 67 29 97 42 98 42 313 156 362 190 14 11 30 19 35 20 4 0 28 16
53 35 25 18 55 38 68 44 12 5 22 15 22 21 0 7 3 10 6 7 7 -7 148 98 257 192
122 105 241 227 396 405 10 11 37 47 62 80 24 33 46 62 50 65 3 3 21 28 39 55
19 28 39 55 45 61 5 6 19 28 30 50 11 21 22 41 25 44 43 40 211 376 267 534
14 39 31 85 39 103 8 17 14 38 14 47 0 8 4 25 9 38 18 49 35 105 42 143 4 22
13 63 19 90 23 108 29 152 31 215 1 36 5 70 9 75 27 38 11 533 -23 680 -2 11
-8 46 -11 77 -4 32 -12 60 -17 63 -5 4 -9 25 -9 48 0 23 -5 60 -11 82 -5 22
-12 51 -14 65 -10 53 -27 137 -36 175 -6 22 -17 67 -25 100 -8 33 -19 80 -24
105 -6 25 -14 56 -19 70 -5 14 -14 45 -21 70 -26 95 -84 265 -92 268 -4 2 -8
17 -8 32 0 16 -4 32 -10 35 -5 3 -10 13 -10 22 0 8 -7 31 -16 51 -9 21 -22 52
-30 70 -8 18 -14 39 -14 47 0 8 -4 15 -10 15 -5 0 -10 7 -10 16 0 8 -9 36 -21
62 -11 26 -24 56 -29 67 -79 182 -180 385 -191 385 -5 0 -9 7 -9 16 0 8 -13
38 -29 67 -16 29 -42 77 -59 107 -24 45 -117 200 -162 270 -5 8 -22 36 -37 62
-16 27 -31 48 -35 48 -5 0 -8 7 -8 15 0 8 -4 15 -10 15 -5 0 -10 5 -10 10 0 9
-71 114 -100 147 -5 7 -10 16 -10 20 0 5 -13 23 -30 41 -16 18 -30 37 -30 43
0 5 -4 9 -10 9 -5 0 -10 7 -10 15 0 9 -7 18 -15 21 -8 4 -15 13 -15 20 0 8 -7
17 -15 20 -8 4 -15 10 -15 16 0 5 -6 15 -12 23 -7 7 -24 28 -38 46 -14 18 -33
41 -42 51 -10 10 -18 21 -19 26 0 4 -14 23 -30 42 -16 19 -55 67 -86 105 -31
39 -71 84 -89 102 -18 18 -34 36 -36 41 -3 10 -107 126 -223 251 -162 173
-537 538 -675 655 -30 26 -69 59 -85 74 -17 15 -57 49 -90 77 -33 27 -65 54
-71 60 -6 5 -25 21 -44 35 -18 14 -41 33 -51 43 -11 9 -21 17 -23 17 -2 0 -19
13 -38 30 -18 16 -51 45 -73 65 -22 19 -46 35 -52 35 -7 0 -13 4 -13 9 0 5
-17 20 -37 32 -21 13 -45 30 -54 39 -22 21 -49 42 -79 61 -14 9 -38 28 -54 42
-17 14 -35 23 -40 20 -6 -3 -8 -3 -4 2 10 11 -92 86 -106 78 -6 -3 -8 -3 -4 2
8 8 -33 45 -51 45 -6 0 -11 4 -11 9 0 5 -17 20 -37 32 -21 13 -40 26 -43 29
-9 12 -171 120 -180 120 -4 0 -10 6 -13 13 -3 6 -22 21 -43 32 -22 11 -48 28
-58 38 -11 9 -23 17 -27 17 -4 0 -14 6 -21 13 -24 22 -108 77 -118 77 -6 0
-10 4 -10 9 0 5 -10 13 -22 17 -12 3 -31 15 -42 26 -11 10 -31 21 -43 24 -13
4 -23 9 -23 13 0 10 -194 131 -209 131 -6 0 -11 4 -11 10 0 5 -11 12 -25 16
-14 3 -25 10 -25 15 0 5 -17 17 -37 27 -21 9 -40 20 -43 23 -3 3 -41 26 -85
52 -44 26 -87 52 -95 57 -8 5 -31 17 -50 27 -19 9 -37 20 -40 23 -3 4 -34 23
-70 43 -36 21 -72 42 -80 47 -49 31 -125 70 -137 70 -7 0 -13 5 -13 10 0 6 -7
10 -15 10 -8 0 -15 4 -15 9 0 5 -12 14 -27 20 -16 6 -57 27 -93 47 -145 81
-248 133 -254 127 -3 -4 -6 -2 -6 4 0 12 -175 104 -184 97 -3 -2 -4 -1 -1 3 6
7 -242 133 -262 133 -7 0 -13 4 -13 9 0 5 -12 12 -27 16 -15 3 -30 10 -33 13
-9 12 -130 72 -145 72 -8 0 -15 5 -15 10 0 6 -5 10 -11 10 -6 0 -61 24 -122
54 -151 73 -272 129 -332 156 -27 12 -72 33 -98 46 -27 13 -57 24 -68 24 -10
0 -19 4 -19 9 0 5 -13 12 -30 16 -16 4 -32 11 -35 16 -4 5 -15 9 -26 9 -10 0
-19 4 -19 9 0 9 -57 27 -73 23 -5 -2 -6 2 -3 6 5 9 -76 45 -101 45 -7 0 -13 3
-13 7 0 3 -19 14 -42 24 -24 10 -62 27 -85 37 -23 11 -49 19 -57 19 -8 0 -17
4 -20 9 -3 4 -43 23 -88 40 -96 37 -121 48 -165 70 -33 15 -42 34 -23 46 6 3
10 15 10 26 0 10 5 19 10 19 6 0 10 6 10 13 0 6 6 24 14 39 15 29 31 88 28
101 -2 5 2 6 7 3 11 -7 21 17 21 55 0 16 5 29 10 29 6 0 10 8 10 18 0 10 5 23
10 28 6 6 13 34 17 62 3 29 9 52 14 52 4 0 11 17 14 38 3 20 10 45 16 54 5 10
9 35 9 56 0 21 5 43 11 49 6 6 14 42 16 80 3 37 9 73 14 78 11 14 29 270 29
413 0 147 -19 404 -31 417 -5 5 -9 32 -9 60 -1 27 -7 68 -15 90 -8 22 -15 54
-15 71 0 17 -3 34 -7 38 -5 4 -8 11 -9 14 -3 37 -17 92 -24 92 -4 0 -10 17
-13 38 -4 35 -26 101 -37 112 -3 3 -7 16 -8 30 -2 14 -12 43 -22 65 -10 22
-26 64 -36 93 -10 28 -22 52 -26 52 -5 0 -8 6 -8 14 0 20 -109 229 -163 313
-15 24 -27 45 -27 48 0 8 -102 159 -114 170 -7 6 -22 27 -35 48 -12 20 -27 37
-32 37 -5 0 -9 5 -9 10 0 6 -5 16 -10 23 -6 7 -31 38 -56 70 -26 31 -50 57
-55 57 -5 0 -9 6 -9 13 0 20 -340 358 -352 351 -7 -4 -8 -2 -4 4 3 6 -2 16
-13 21 -11 6 -27 18 -35 27 -15 14 -145 122 -171 142 -6 4 -35 26 -65 48 -30
23 -68 50 -85 60 -16 10 -32 21 -35 24 -14 14 -71 50 -80 50 -5 0 -10 3 -10 8
0 9 -112 77 -122 74 -5 -1 -8 1 -8 6 0 4 -17 16 -37 27 -21 11 -40 22 -43 25
-6 6 -38 24 -105 60 -27 15 -80 43 -117 63 -37 21 -76 37 -87 37 -11 0 -21 4
-23 8 -2 5 -34 23 -73 41 -97 45 -108 50 -125 53 -36 7 -44 29 -41 107 1 42 6
81 11 86 4 6 10 33 13 60 4 28 11 70 16 95 6 25 10 69 11 98 0 40 3 51 13 46
7 -5 6 0 -3 11 -8 10 -10 16 -4 12 13 -8 24 35 24 94 0 21 5 41 10 44 6 3 10
23 10 44 0 20 5 42 10 47 6 6 13 35 16 65 3 30 12 68 20 86 8 17 14 45 14 61
0 17 4 33 9 37 9 5 27 91 23 108 -1 4 2 7 8 7 5 0 10 13 10 28 0 16 7 42 15
59 8 16 16 42 17 57 1 14 6 26 9 26 4 0 10 15 14 33 8 40 27 99 36 112 8 12
24 77 21 88 -1 4 2 7 8 7 5 0 13 18 16 40 4 22 10 40 15 40 5 0 12 18 15 40 4
22 10 40 15 40 5 0 9 7 9 16 0 8 7 22 15 30 8 9 15 29 15 45 0 16 4 29 8 29 9
0 42 70 42 88 0 7 4 12 9 12 5 0 12 12 16 27 3 15 10 30 13 33 10 7 42 70 42
82 0 5 9 21 20 35 11 14 18 29 15 33 -3 4 2 10 10 14 8 3 15 15 15 26 0 11 4
20 9 20 11 0 26 40 22 55 -1 5 1 7 5 3 4 -4 23 18 43 50 19 31 41 63 48 70 7
7 13 20 13 28 0 8 5 14 10 14 6 0 10 5 10 10 0 6 9 19 20 30 12 12 18 26 14
32 -4 6 -3 8 4 4 6 -3 13 2 17 13 3 11 12 22 20 25 8 3 15 11 15 18 0 7 18 31
40 52 22 22 40 43 40 47 0 10 218 229 228 229 4 0 27 18 52 40 25 22 52 46 62
54 9 8 25 17 37 21 12 3 21 11 21 16 0 5 11 14 25 19 14 5 28 17 31 25 4 8 14
15 25 15 10 0 22 6 26 14 4 8 10 15 13 16 30 6 50 14 50 20 0 5 14 11 30 15
17 4 28 10 26 14 -3 4 5 8 16 8 12 1 24 6 27 12 4 5 19 13 34 16 15 4 27 11
27 15 0 4 18 10 40 14 22 3 40 11 40 16 0 6 11 10 24 10 14 0 27 4 31 9 3 6
26 13 50 17 25 3 48 10 51 15 3 5 18 9 33 9 42 0 91 11 86 20 -5 7 119 19 215
21 40 0 50 3 35 9 -13 6 10 8 65 8 l85 -1 -65 -7 -65 -7 91 -1 c66 -2 91 1 93
11 1 6 4 40 7 75 3 34 9 62 14 62 4 0 10 19 13 43 21 164 30 224 39 241 5 10
12 53 15 95 3 42 10 78 14 81 5 3 11 38 15 77 l7 71 -44 4 c-147 16 -467 4
-589 -21 -25 -6 -70 -14 -100 -20 -30 -5 -73 -14 -95 -20 -22 -5 -62 -15 -90
-21 -27 -7 -54 -16 -59 -21 -6 -5 -19 -9 -30 -9 -12 0 -34 -7 -50 -15 -15 -8
-36 -15 -45 -15 -10 0 -40 -11 -67 -25 -27 -14 -53 -25 -57 -25 -14 0 -222
-103 -225 -112 -2 -4 -9 -8 -15 -8 -14 0 -151 -81 -155 -92 -2 -4 -9 -8 -15
-8 -7 0 -24 -11 -39 -25 -15 -14 -30 -25 -33 -25 -5 0 -64 -39 -75 -50 -3 -3
-25 -20 -50 -39 -64 -49 -69 -53 -131 -112 -32 -30 -66 -60 -77 -68 -12 -8
-19 -18 -16 -23 3 -4 -1 -8 -8 -8 -12 0 -62 -50 -165 -166 -103 -118 -123
-142 -123 -148 0 -3 -8 -14 -17 -24 -37 -39 -123 -158 -123 -170 0 -4 -11 -20
-25 -36 -14 -16 -25 -35 -25 -43 0 -7 -4 -13 -10 -13 -5 0 -17 -17 -26 -37
-10 -21 -24 -42 -31 -46 -7 -4 -13 -12 -13 -17 0 -5 -18 -39 -40 -75 -22 -36
-40 -72 -40 -79 0 -8 -3 -16 -7 -18 -13 -5 -93 -170 -87 -179 3 -5 0 -9 -5 -9
-6 0 -11 -7 -11 -15 0 -8 -4 -15 -10 -15 -5 0 -10 -6 -10 -13 0 -7 -9 -29 -20
-50 -11 -20 -20 -46 -20 -57 0 -11 -4 -20 -10 -20 -5 0 -10 -12 -10 -26 0 -14
-4 -23 -9 -20 -5 4 -13 -8 -16 -26 -4 -18 -14 -42 -21 -53 -8 -11 -14 -30 -14
-42 0 -13 -4 -23 -8 -23 -4 0 -16 -26 -26 -57 -10 -32 -22 -65 -26 -74 -5 -9
-12 -33 -15 -53 -4 -20 -11 -36 -15 -36 -5 0 -11 -19 -15 -42 -4 -23 -11 -49
-16 -58 -14 -25 -39 -109 -39 -130 0 -10 -4 -21 -9 -25 -6 -3 -13 -27 -17 -53
-4 -26 -13 -59 -20 -74 -8 -15 -14 -45 -14 -68 0 -22 -4 -40 -10 -40 -5 0 -10
-15 -10 -34 0 -19 -5 -36 -11 -38 -6 -2 -13 -33 -16 -68 -3 -36 -10 -68 -15
-71 -5 -3 -11 -30 -15 -60 -3 -30 -9 -59 -14 -64 -7 -10 -25 -132 -21 -147 1
-5 -3 -8 -8 -8 -6 0 -10 -24 -10 -54 0 -30 -4 -56 -9 -58 -5 -1 -12 -36 -16
-75 -7 -80 -9 -91 -18 -113 -3 -8 -8 -35 -11 -59 -3 -24 -7 -45 -8 -47 -3 -2
-34 4 -143 27 -408 86 -763 123 -1200 123 -148 1 -337 -5 -420 -12 -265 -22
-348 -31 -410 -41 -33 -6 -87 -16 -120 -21 -33 -6 -89 -15 -124 -20 -35 -5
-77 -14 -95 -19 -17 -5 -58 -15 -91 -21 -33 -7 -83 -19 -112 -27 -64 -19 -83
-13 -83 26 0 16 -4 32 -9 35 -4 3 -11 44 -14 92 -2 47 -10 91 -16 97 -6 6 -11
35 -11 64 0 29 -4 53 -9 53 -4 0 -11 34 -14 77 -3 42 -10 79 -15 82 -5 3 -12
34 -15 69 -4 35 -11 71 -17 82 -5 10 -10 30 -10 44 0 14 -4 26 -9 26 -4 0 -11
30 -14 67 -3 37 -10 69 -16 71 -6 2 -11 17 -11 32 0 16 -6 49 -14 72 -8 24
-18 60 -21 81 -4 20 -11 40 -16 43 -5 3 -9 18 -9 34 0 16 -4 31 -9 34 -5 3
-12 26 -15 51 -4 25 -11 45 -17 45 -5 0 -9 12 -9 28 0 15 -7 40 -15 56 -8 15
-15 36 -15 45 0 9 -7 29 -15 45 -8 15 -15 35 -15 42 0 8 -4 14 -9 14 -5 0 -11
15 -14 33 -7 43 -39 131 -49 135 -4 2 -8 12 -8 23 0 10 -4 19 -9 19 -5 0 -12
16 -15 35 -4 19 -13 47 -21 62 -8 15 -15 34 -15 41 0 6 -4 12 -10 12 -5 0 -10
7 -10 15 0 8 -11 36 -24 63 -13 26 -34 71 -47 100 -13 28 -27 52 -31 52 -5 0
-8 9 -8 20 0 11 -4 20 -9 20 -5 0 -12 11 -15 25 -4 14 -10 25 -15 25 -5 0 -12
14 -16 30 -4 17 -10 30 -15 30 -4 0 -12 13 -18 28 -5 16 -16 35 -23 43 -8 8
-25 36 -39 62 -14 27 -32 56 -41 66 -9 10 -20 27 -23 39 -4 12 -12 22 -17 22
-5 0 -9 7 -9 15 0 9 -7 18 -15 21 -8 4 -15 10 -15 15 0 13 -63 99 -72 99 -4 0
-8 6 -8 13 0 7 -13 27 -29 44 -16 18 -31 36 -33 41 -17 47 -385 415 -479 480
-13 9 -35 27 -49 39 -14 13 -28 23 -32 23 -3 0 -13 6 -20 13 -32 30 -166 116
-172 110 -3 -4 -6 -2 -6 4 0 5 -17 18 -37 29 -21 10 -40 21 -43 24 -5 6 -252
127 -285 141 -11 4 -42 15 -70 24 -27 10 -64 24 -82 31 -17 8 -40 14 -51 14
-12 0 -23 4 -26 9 -6 9 -124 40 -168 43 -16 1 -28 5 -28 9 0 4 -22 10 -48 14
-52 7 -68 10 -152 25 -72 13 -479 21 -550 11z m6598 -9198 c17 -3 32 -9 32
-13 0 -5 15 -11 33 -15 17 -3 41 -10 52 -15 44 -19 146 -50 165 -50 11 0 20
-4 20 -10 0 -5 11 -10 24 -10 14 0 27 -4 30 -9 3 -5 23 -12 43 -16 21 -4 41
-11 44 -17 4 -6 27 -13 53 -15 25 -3 46 -10 46 -14 0 -5 11 -9 24 -9 13 0 26
-5 28 -10 2 -6 21 -13 43 -17 22 -3 46 -12 53 -20 7 -7 27 -13 43 -13 16 0 29
-4 29 -10 0 -5 18 -13 40 -16 22 -4 40 -10 40 -15 0 -5 14 -9 30 -9 17 0 30
-4 30 -10 0 -5 12 -13 28 -16 15 -4 32 -9 37 -13 21 -12 141 -51 158 -51 9 0
17 -4 17 -10 0 -5 11 -10 25 -10 14 0 25 -4 25 -9 0 -5 17 -12 37 -16 20 -4
46 -13 57 -21 11 -8 33 -14 48 -14 16 0 28 -3 28 -8 0 -8 73 -42 93 -42 6 0
21 -7 31 -15 11 -8 30 -15 43 -15 13 0 23 -3 23 -8 0 -9 90 -42 114 -42 9 0
16 -4 16 -10 0 -5 6 -10 13 -10 6 0 24 -6 39 -14 15 -8 40 -17 57 -21 17 -4
31 -11 31 -16 0 -5 8 -9 18 -9 10 0 36 -9 58 -19 21 -11 42 -17 46 -14 5 2 8
0 8 -6 0 -5 14 -13 32 -16 17 -4 38 -14 46 -21 7 -8 25 -14 38 -14 14 0 32 -7
41 -15 8 -8 19 -13 24 -10 5 4 9 2 9 -4 0 -5 14 -13 32 -16 17 -4 38 -14 46
-21 7 -8 24 -14 38 -14 13 0 24 -4 24 -10 0 -5 7 -10 16 -10 8 0 22 -7 30 -15
9 -8 23 -15 33 -15 10 0 38 -11 62 -23 24 -13 57 -27 74 -31 16 -4 32 -12 36
-17 3 -6 15 -11 27 -12 12 0 24 -7 26 -14 3 -7 14 -13 25 -13 11 0 22 -4 26
-9 3 -5 19 -12 35 -16 17 -4 30 -10 30 -15 0 -4 18 -11 40 -15 22 -4 38 -11
34 -16 -3 -5 4 -9 16 -9 12 0 28 -7 36 -15 9 -8 24 -15 35 -15 10 0 19 -4 19
-9 0 -5 14 -12 30 -16 17 -4 30 -11 30 -16 0 -5 11 -9 24 -9 13 0 26 -7 30
-15 3 -8 16 -15 30 -15 13 0 26 -3 28 -7 4 -10 110 -59 120 -56 4 2 8 -2 8 -7
0 -6 7 -10 15 -10 8 0 15 -4 15 -9 0 -5 14 -12 30 -16 17 -4 30 -10 30 -15 0
-4 16 -11 35 -14 19 -4 35 -11 35 -16 0 -6 7 -10 15 -10 8 0 15 -4 15 -9 0 -5
12 -12 26 -15 15 -4 33 -14 41 -21 8 -8 23 -15 34 -15 10 0 19 -4 19 -10 0 -5
16 -12 35 -16 19 -3 35 -10 35 -15 0 -5 7 -9 15 -9 8 0 15 -4 15 -10 0 -5 12
-13 28 -16 15 -4 29 -10 32 -13 9 -11 72 -41 86 -41 8 0 14 -4 14 -10 0 -5 11
-12 25 -16 14 -3 25 -10 25 -14 0 -5 14 -11 30 -15 17 -4 30 -10 30 -15 0 -5
14 -11 30 -15 17 -4 30 -11 30 -16 0 -5 7 -9 15 -9 8 0 15 -4 15 -10 0 -5 8
-10 19 -10 10 0 24 -7 31 -15 6 -8 21 -17 33 -21 12 -4 27 -13 35 -20 7 -8 17
-12 22 -9 4 3 13 -2 20 -10 7 -8 20 -15 30 -15 10 0 20 -7 24 -15 3 -8 15 -15
26 -15 11 0 20 -4 20 -10 0 -5 6 -10 14 -10 7 0 19 -7 26 -15 7 -8 21 -15 32
-15 10 0 17 -4 14 -9 -4 -5 7 -12 24 -16 16 -4 30 -10 30 -15 0 -5 10 -12 23
-16 12 -4 24 -9 27 -13 5 -6 23 -16 105 -60 17 -9 34 -22 38 -28 4 -7 17 -13
27 -13 11 0 20 -4 20 -10 0 -5 7 -10 15 -10 8 0 15 -4 15 -10 0 -5 11 -12 25
-16 14 -3 25 -10 25 -15 0 -5 4 -9 10 -9 5 0 26 -11 46 -25 20 -14 41 -22 47
-18 6 3 7 1 3 -5 -7 -11 6 -17 27 -13 5 1 6 -3 3 -8 -4 -5 4 -13 16 -17 13 -4
25 -10 28 -13 3 -4 30 -22 60 -41 30 -19 57 -38 60 -41 3 -4 17 -10 32 -14 15
-4 29 -13 32 -21 3 -8 12 -14 20 -14 8 0 26 -10 40 -22 33 -31 46 -40 90 -63
21 -11 41 -25 43 -32 3 -7 13 -13 23 -13 10 0 20 -7 24 -15 3 -8 12 -15 21
-15 8 0 15 -3 15 -8 0 -4 16 -16 35 -26 19 -11 35 -23 35 -28 0 -4 6 -8 13 -8
7 0 20 -9 30 -20 9 -11 24 -20 32 -20 8 0 15 -4 15 -9 0 -5 10 -13 23 -17 12
-4 28 -15 35 -25 7 -11 19 -19 25 -19 7 0 23 -12 36 -25 13 -14 26 -24 28 -21
3 3 15 -5 28 -17 30 -29 72 -59 80 -57 4 1 17 -10 30 -24 13 -14 27 -26 30
-26 7 0 31 -19 53 -42 9 -10 20 -18 25 -18 4 0 20 -11 35 -25 15 -14 32 -25
38 -25 7 0 14 -7 18 -15 3 -8 12 -15 21 -15 8 0 14 -5 12 -12 -1 -7 4 -13 11
-14 6 -1 16 -2 21 -3 5 0 12 -10 16 -20 3 -11 15 -23 26 -26 11 -4 32 -19 48
-33 32 -32 108 -94 127 -105 8 -4 38 -30 67 -58 28 -27 55 -49 59 -49 3 0 26
-20 50 -45 24 -24 49 -45 56 -45 7 0 10 -4 7 -10 -3 -5 -1 -10 5 -10 6 0 33
-20 58 -45 26 -25 65 -63 88 -85 23 -22 44 -40 47 -40 10 0 364 -358 371 -375
3 -9 10 -13 16 -10 5 3 10 0 10 -7 0 -7 11 -24 25 -38 73 -74 110 -115 110
-125 1 -5 6 -9 13 -7 7 1 12 -5 12 -13 0 -9 7 -18 15 -21 8 -3 17 -14 20 -24
3 -11 15 -22 26 -25 10 -4 19 -12 19 -19 0 -7 15 -29 33 -49 17 -20 43 -50 57
-67 14 -17 31 -37 38 -45 6 -7 12 -18 12 -24 0 -5 6 -14 13 -18 8 -4 22 -21
33 -38 10 -16 24 -34 31 -38 7 -4 13 -12 13 -18 0 -5 5 -15 10 -22 6 -7 24
-28 40 -47 16 -19 30 -39 30 -43 0 -7 9 -20 38 -52 6 -7 12 -18 12 -24 0 -6 4
-11 9 -11 5 0 12 -11 15 -25 4 -14 11 -25 16 -25 6 0 10 -7 10 -15 0 -9 7 -18
15 -21 8 -4 15 -12 15 -20 0 -7 11 -24 25 -38 14 -14 25 -32 25 -40 0 -8 6
-21 14 -28 7 -8 17 -24 20 -36 4 -12 12 -22 17 -22 5 0 9 -6 9 -14 0 -8 7 -16
15 -20 8 -3 14 -9 13 -14 -3 -8 32 -83 43 -92 4 -3 9 -15 13 -27 4 -13 12 -23
17 -23 5 0 9 -9 9 -20 0 -11 4 -20 9 -20 5 0 12 -14 16 -30 4 -17 11 -28 16
-24 5 3 9 -4 9 -15 0 -11 6 -26 14 -33 7 -8 17 -28 20 -45 4 -17 15 -39 25
-50 10 -10 21 -36 25 -56 4 -20 11 -37 15 -37 5 0 12 -12 15 -27 10 -38 30
-83 37 -83 4 0 9 -18 13 -40 3 -22 10 -40 15 -40 5 0 11 -18 15 -40 3 -22 11
-40 16 -40 6 0 10 -13 10 -29 0 -16 7 -36 15 -45 8 -8 15 -31 15 -50 0 -20 4
-36 9 -36 6 0 13 -20 17 -45 3 -25 10 -45 15 -45 5 0 9 -15 9 -32 0 -18 7 -46
15 -62 8 -15 15 -39 15 -52 0 -13 4 -24 9 -24 4 0 11 -32 13 -71 3 -39 10 -74
15 -78 6 -3 13 -39 16 -79 3 -41 10 -79 16 -86 5 -6 13 -45 17 -86 3 -41 10
-76 15 -78 12 -5 12 -359 0 -366 -5 -3 -12 -35 -16 -71 -3 -36 -10 -63 -15
-60 -4 3 -11 -15 -14 -40 -4 -25 -11 -45 -16 -45 -4 0 -11 -18 -15 -40 -4 -22
-11 -40 -16 -40 -5 0 -9 -9 -9 -21 0 -11 -4 -18 -9 -15 -5 3 -12 -9 -15 -28
-4 -19 -13 -37 -21 -40 -8 -3 -15 -15 -15 -26 0 -12 -4 -18 -10 -15 -5 3 -10
-3 -10 -13 0 -11 -7 -22 -15 -26 -8 -3 -15 -12 -15 -21 0 -8 -4 -15 -10 -15
-5 0 -10 -6 -10 -13 0 -8 -9 -24 -20 -37 -11 -13 -20 -26 -20 -30 0 -9 -48
-64 -137 -156 -40 -41 -73 -80 -73 -86 0 -6 -3 -9 -6 -6 -3 3 -20 -7 -37 -23
-56 -51 -71 -64 -107 -89 -19 -13 -37 -27 -40 -31 -3 -3 -15 -9 -27 -13 -13
-4 -23 -12 -23 -17 0 -5 -7 -9 -15 -9 -8 0 -15 -4 -15 -9 0 -5 -10 -13 -22
-17 -13 -4 -25 -9 -28 -13 -8 -10 -96 -51 -109 -51 -7 0 -9 -4 -6 -10 3 -5 -3
-10 -14 -10 -12 0 -21 -4 -21 -9 0 -5 -18 -11 -40 -15 -22 -3 -40 -10 -40 -15
0 -5 -20 -12 -45 -15 -24 -4 -47 -11 -50 -17 -4 -5 -17 -9 -31 -9 -14 0 -23
-4 -20 -9 3 -4 -22 -11 -55 -14 -33 -4 -68 -11 -78 -17 -10 -5 -54 -12 -97
-16 -44 -3 -80 -10 -82 -15 -5 -12 -535 -12 -547 0 -6 5 -48 12 -95 16 -47 4
-92 11 -101 16 -9 4 -46 11 -83 15 -37 4 -69 11 -72 15 -3 5 -20 9 -39 9 -19
0 -36 4 -40 9 -3 5 -30 13 -60 16 -30 4 -55 11 -55 16 0 4 -27 11 -60 15 -33
4 -60 11 -60 15 0 5 -13 9 -30 9 -16 0 -30 4 -30 10 0 5 -17 12 -37 15 -21 4
-52 13 -70 21 -17 8 -43 14 -57 14 -14 0 -26 4 -26 9 0 5 -18 12 -40 16 -22 4
-40 11 -40 16 0 5 -13 9 -30 9 -16 0 -30 4 -30 10 0 5 -18 13 -40 16 -22 4
-40 10 -40 14 0 8 -58 26 -72 22 -5 -1 -8 2 -8 7 0 5 -15 12 -34 15 -18 4 -55
18 -82 31 -27 14 -55 25 -62 25 -7 0 -20 7 -28 15 -9 8 -29 15 -45 15 -16 0
-29 3 -29 8 0 9 -74 42 -95 42 -8 0 -15 4 -15 9 0 11 -60 33 -60 23 0 -4 -4
-2 -8 4 -8 13 -193 104 -211 104 -6 0 -11 5 -11 10 0 6 -9 10 -19 10 -11 0
-21 4 -23 8 -4 11 -86 52 -103 52 -8 0 -15 4 -15 9 0 5 -13 12 -30 16 -16 4
-30 11 -30 16 0 5 -7 9 -15 9 -8 0 -15 4 -15 9 0 5 -13 12 -30 16 -16 4 -30
10 -30 15 0 5 -10 12 -22 16 -13 4 -25 9 -28 13 -11 13 -90 52 -90 44 0 -4 -5
0 -11 10 -5 9 -17 17 -24 17 -8 0 -15 4 -15 9 0 5 -12 12 -26 15 -14 4 -34 15
-44 24 -10 9 -40 28 -67 42 -26 14 -54 31 -61 38 -7 6 -20 12 -28 12 -8 0 -14
4 -14 8 0 5 -17 17 -37 28 -21 10 -44 25 -51 32 -7 6 -19 12 -27 12 -7 0 -16
7 -19 16 -3 8 -10 12 -16 9 -5 -3 -10 -2 -10 4 0 5 -28 27 -62 47 -35 21 -64
42 -66 46 -2 4 -8 8 -13 8 -6 0 -15 5 -22 10 -48 41 -62 50 -73 50 -7 0 -14 3
-16 8 -5 12 -86 72 -97 72 -6 0 -11 4 -11 10 0 5 -11 12 -25 16 -14 3 -22 10
-19 15 3 5 -1 9 -9 9 -8 0 -17 7 -21 15 -3 8 -10 15 -16 15 -6 0 -23 11 -38
25 -15 14 -30 25 -35 25 -4 0 -18 10 -30 23 -12 12 -39 34 -59 47 -21 14 -38
28 -38 33 0 4 -4 7 -9 7 -5 0 -31 20 -58 45 -26 25 -51 45 -55 45 -4 0 -18 10
-32 23 -70 63 -139 123 -153 131 -9 5 -31 24 -49 42 -18 19 -35 34 -38 34 -5
0 -29 20 -59 49 -7 6 -32 30 -56 54 -24 23 -55 54 -69 70 -14 15 -31 27 -39
27 -7 0 -13 6 -13 13 0 6 -14 23 -32 37 -38 30 -188 178 -187 186 0 10 -70 72
-75 66 -3 -3 -6 0 -6 7 0 7 -6 18 -12 25 -7 7 -32 34 -56 60 -24 25 -47 46
-53 46 -5 0 -9 7 -9 15 0 9 -7 18 -15 21 -8 4 -15 11 -15 17 0 5 -18 27 -40
48 -22 21 -41 42 -41 46 0 5 -25 34 -55 66 -30 32 -54 62 -54 65 0 4 -11 16
-24 27 -13 11 -24 24 -24 28 -1 8 -50 71 -89 113 -13 14 -23 28 -23 32 0 4
-16 25 -35 47 -19 22 -39 45 -45 52 -5 7 -10 16 -10 20 0 5 -10 19 -23 33 -13
14 -32 40 -42 58 -11 17 -23 32 -27 32 -4 0 -8 7 -8 15 0 7 -6 18 -13 22 -8 4
-26 30 -42 56 -15 27 -34 51 -41 54 -8 3 -14 14 -14 24 0 11 -6 22 -14 25 -8
3 -17 16 -20 30 -4 13 -11 24 -16 24 -6 0 -10 7 -10 15 0 8 -4 15 -9 15 -5 0
-11 8 -15 18 -3 9 -15 31 -26 47 -11 17 -25 40 -31 53 -7 12 -16 22 -21 22 -4
0 -8 7 -8 15 0 8 -4 15 -10 15 -5 0 -10 9 -10 20 0 11 -6 23 -14 26 -8 3 -17
16 -20 30 -4 13 -11 24 -16 24 -6 0 -10 7 -10 15 0 8 -4 15 -9 15 -5 0 -12 12
-16 27 -3 15 -10 30 -13 33 -4 3 -22 34 -41 70 -19 36 -39 71 -45 79 -5 7 -11
19 -12 25 -1 7 -12 30 -26 52 -13 21 -50 93 -83 159 -32 66 -63 121 -67 123
-4 2 -8 15 -8 28 0 14 -7 27 -15 30 -8 4 -13 9 -10 13 4 7 -3 24 -61 145 -13
28 -24 54 -24 59 0 9 -34 91 -50 119 -6 10 -10 22 -10 28 0 6 -11 33 -24 60
-14 28 -28 64 -31 80 -4 17 -11 32 -16 35 -5 4 -9 16 -9 28 0 12 -7 31 -15 41
-8 11 -15 30 -15 43 0 13 -4 23 -10 23 -5 0 -10 12 -10 26 0 14 -6 38 -14 52
-8 15 -22 55 -32 90 -11 34 -22 62 -26 62 -5 0 -8 12 -8 27 0 26 -33 142 -50
174 -5 9 -11 37 -15 63 -4 25 -11 46 -15 46 -4 0 -10 17 -13 38 -7 53 -28 135
-37 147 -4 6 -11 36 -14 68 -4 31 -11 57 -15 57 -5 0 -11 28 -15 62 -3 34 -11
67 -16 72 -6 6 -10 25 -10 42 0 18 -4 35 -9 38 -4 3 -11 38 -14 77 -3 40 -10
75 -15 78 -5 3 -12 41 -15 84 -4 43 -11 86 -17 97 -5 10 -10 37 -10 59 0 23
-4 41 -8 41 -5 0 -12 44 -15 98 -4 53 -11 111 -16 128 -5 17 -12 76 -16 130
-3 54 -10 115 -15 134 -5 19 -11 101 -15 183 -4 81 -11 147 -15 147 -9 0 -25
844 -16 858 4 7 19 6 43 0 21 -5 53 -12 71 -15z m-3112 -480 c-8 -441 -16
-627 -27 -634 -5 -3 -12 -62 -16 -130 -3 -68 -9 -128 -13 -134 -4 -5 -11 -50
-15 -99 -4 -49 -11 -100 -16 -113 -5 -14 -9 -53 -9 -89 0 -35 -4 -64 -9 -64
-5 0 -13 -30 -17 -67 -9 -88 -9 -86 -16 -98 -3 -5 -9 -41 -13 -80 -4 -38 -11
-74 -15 -80 -9 -11 -19 -71 -22 -127 -1 -20 -5 -35 -9 -32 -7 4 -10 -7 -31
-133 -6 -40 -15 -73 -20 -73 -7 0 -24 -96 -20 -112 1 -5 -2 -8 -8 -8 -5 0 -10
-13 -10 -29 0 -16 -7 -42 -15 -57 -8 -16 -15 -46 -15 -66 0 -21 -4 -38 -10
-38 -5 0 -12 -17 -15 -37 -3 -21 -10 -45 -15 -54 -5 -9 -12 -33 -15 -53 -4
-20 -11 -39 -16 -42 -5 -3 -9 -20 -9 -39 0 -18 -3 -35 -8 -37 -4 -1 -18 -37
-31 -78 -13 -41 -29 -89 -37 -107 -8 -17 -14 -37 -14 -45 0 -8 -9 -33 -20 -56
-11 -23 -23 -57 -27 -75 -4 -17 -12 -38 -20 -45 -7 -7 -13 -27 -13 -43 0 -16
-4 -29 -10 -29 -5 0 -10 -9 -10 -21 0 -11 -7 -27 -15 -35 -8 -9 -15 -26 -15
-39 0 -13 -3 -25 -8 -27 -10 -4 -72 -146 -72 -164 0 -8 -4 -14 -10 -14 -5 0
-10 -6 -10 -13 0 -7 -9 -29 -20 -50 -11 -20 -20 -44 -20 -52 0 -8 -4 -15 -10
-15 -5 0 -10 -6 -10 -12 0 -7 -14 -40 -30 -73 -16 -33 -30 -66 -30 -72 0 -7
-4 -13 -10 -13 -5 0 -13 -12 -16 -27 -4 -16 -10 -30 -14 -33 -9 -7 -40 -76
-40 -89 0 -6 -3 -11 -7 -11 -5 0 -24 -31 -43 -68 -19 -37 -37 -69 -40 -72 -3
-3 -16 -27 -30 -55 -14 -27 -28 -51 -32 -53 -5 -2 -8 -8 -8 -12 0 -5 -20 -43
-45 -83 -25 -41 -45 -80 -45 -86 0 -6 -4 -11 -8 -11 -9 0 -40 -50 -40 -64 0
-5 -4 -12 -9 -15 -21 -15 -52 -64 -46 -74 3 -5 2 -7 -4 -4 -5 3 -20 -14 -33
-39 -14 -24 -28 -44 -31 -44 -4 0 -9 -8 -13 -17 -8 -25 -29 -57 -43 -66 -7 -4
-13 -15 -13 -22 0 -8 -4 -15 -9 -15 -5 0 -13 -10 -17 -22 -4 -13 -15 -30 -25
-39 -11 -9 -19 -20 -19 -24 0 -5 -7 -15 -15 -24 -8 -9 -35 -43 -60 -76 -24
-33 -49 -65 -55 -72 -5 -7 -10 -17 -10 -23 0 -5 -4 -10 -8 -10 -5 0 -22 -19
-39 -42 -17 -24 -40 -54 -52 -67 -12 -13 -21 -28 -21 -33 0 -5 -14 -21 -30
-35 -17 -13 -28 -29 -24 -34 3 -5 -2 -9 -10 -9 -9 0 -16 -5 -16 -10 0 -6 -16
-27 -35 -47 -19 -20 -35 -39 -35 -43 0 -5 -21 -30 -47 -57 -119 -124 -228
-246 -231 -259 -2 -8 -9 -14 -15 -14 -7 0 -23 -14 -37 -30 -50 -59 -182 -190
-191 -190 -5 0 -9 -6 -9 -13 0 -8 -11 -19 -25 -25 -14 -6 -25 -18 -25 -27 0
-8 -6 -15 -13 -15 -8 0 -32 -19 -55 -42 -22 -24 -66 -65 -98 -93 -31 -27 -77
-69 -102 -92 -24 -24 -47 -43 -51 -43 -3 0 -24 -17 -46 -37 -23 -21 -63 -56
-90 -78 -51 -41 -70 -57 -105 -87 -11 -10 -23 -18 -26 -18 -3 0 -11 -6 -18
-12 -7 -7 -28 -24 -46 -38 -19 -14 -42 -33 -51 -42 -10 -9 -30 -25 -46 -35
-29 -19 -34 -22 -70 -51 -11 -9 -31 -24 -43 -32 -13 -8 -33 -25 -46 -37 -13
-13 -27 -23 -32 -23 -8 0 -23 -11 -69 -50 -7 -5 -14 -10 -17 -10 -11 0 -96
-64 -96 -72 0 -4 -9 -8 -20 -8 -11 0 -23 -7 -26 -15 -4 -8 -12 -15 -20 -15 -8
0 -14 -4 -14 -10 0 -5 -6 -10 -14 -10 -8 0 -21 -6 -28 -14 -8 -7 -24 -17 -36
-20 -12 -4 -22 -12 -22 -17 0 -5 -7 -9 -15 -9 -8 0 -15 -4 -15 -10 0 -5 -5
-10 -10 -10 -11 0 -63 -34 -88 -57 -7 -7 -20 -13 -28 -13 -8 0 -14 -4 -14 -10
0 -5 -7 -10 -15 -10 -8 0 -15 -4 -15 -10 0 -5 -6 -10 -14 -10 -8 0 -22 -7 -30
-16 -9 -8 -16 -13 -16 -9 0 3 -17 -6 -37 -20 -21 -14 -43 -25 -50 -25 -7 0
-13 -4 -13 -10 0 -5 -7 -10 -15 -10 -8 0 -15 -4 -15 -10 0 -5 -9 -10 -20 -10
-11 0 -23 -6 -26 -14 -3 -8 -19 -18 -35 -21 -16 -4 -29 -10 -29 -13 0 -4 -10
-12 -23 -18 -126 -64 -176 -91 -172 -95 2 -3 -5 -6 -17 -6 -12 -1 -24 -6 -27
-12 -4 -5 -19 -13 -34 -16 -15 -4 -27 -11 -27 -16 0 -5 -9 -9 -20 -9 -11 0
-23 -7 -26 -15 -4 -8 -14 -15 -24 -15 -20 0 -83 -30 -88 -42 -2 -5 -9 -8 -15
-8 -7 0 -24 -6 -38 -14 -14 -7 -37 -16 -52 -20 -15 -3 -27 -11 -27 -16 0 -6
-7 -10 -15 -10 -8 0 -15 -4 -15 -10 0 -5 -13 -10 -29 -10 -16 0 -36 -7 -45
-15 -8 -8 -19 -15 -25 -15 -18 0 -91 -34 -91 -42 0 -5 -9 -8 -21 -8 -12 0 -35
-6 -52 -14 -91 -41 -127 -56 -136 -56 -6 0 -11 -4 -11 -10 0 -5 -11 -10 -24
-10 -13 0 -37 -7 -52 -15 -16 -8 -37 -15 -46 -15 -10 0 -18 -4 -18 -9 0 -5
-18 -11 -40 -15 -22 -3 -40 -10 -40 -14 0 -7 -58 -25 -122 -39 -15 -3 -26 -9
-23 -13 2 -4 -16 -10 -41 -13 -26 -2 -49 -9 -53 -15 -3 -5 -27 -12 -53 -16
-26 -4 -50 -11 -53 -17 -4 -5 -17 -9 -31 -9 -13 0 -24 -4 -24 -9 0 -4 -25 -11
-56 -14 -30 -3 -61 -10 -67 -15 -7 -5 -32 -13 -57 -16 -25 -4 -54 -11 -65 -16
-11 -5 -41 -11 -68 -15 -26 -3 -45 -10 -42 -16 4 -5 -19 -9 -54 -9 -34 0 -61
-4 -61 -9 0 -5 -43 -12 -95 -16 -52 -4 -95 -11 -95 -16 0 -5 -138 -9 -310 -9
-170 0 -310 4 -310 8 0 4 -10 9 -22 10 -13 1 -48 7 -78 13 -30 6 -73 13 -95
16 -22 3 -45 9 -51 14 -6 5 -32 12 -58 15 -25 4 -46 11 -46 15 0 5 -18 12 -40
15 -22 4 -40 10 -40 15 0 5 -18 12 -40 15 -22 4 -40 10 -40 15 0 5 -7 9 -15 9
-8 0 -15 5 -15 10 0 6 -7 10 -16 10 -17 0 -97 41 -102 53 -2 4 -12 7 -22 7
-10 0 -20 7 -24 15 -3 8 -12 15 -21 15 -8 0 -15 4 -15 9 0 5 -9 13 -21 16 -20
7 -35 17 -85 60 -13 11 -38 31 -56 45 -49 38 -218 207 -218 219 0 6 -4 11 -9
11 -5 0 -12 9 -16 19 -3 11 -15 23 -26 26 -10 4 -19 12 -19 19 0 7 -9 23 -20
36 -11 13 -20 29 -20 37 0 7 -4 13 -10 13 -5 0 -10 7 -10 15 0 9 -7 18 -15 21
-8 4 -15 15 -15 26 0 10 -5 16 -10 13 -5 -3 -10 3 -10 15 0 11 -6 23 -14 26
-8 3 -17 21 -20 40 -4 19 -11 34 -16 34 -6 0 -10 9 -10 20 0 11 -4 20 -10 20
-5 0 -10 11 -10 24 0 14 -6 31 -14 39 -8 7 -17 31 -20 52 -4 22 -10 42 -14 45
-9 7 -13 25 -20 83 -2 26 -9 47 -14 47 -5 0 -8 81 -7 195 1 110 5 192 10 189
5 -3 9 5 10 18 1 48 12 113 20 124 5 7 12 43 16 80 3 38 10 72 16 75 5 4 11
35 14 70 3 35 9 65 14 67 5 2 9 19 9 39 0 19 7 41 15 49 8 9 15 33 15 54 0 21
5 40 11 42 5 2 13 22 16 46 3 23 10 42 14 42 5 0 9 14 9 30 0 17 4 30 10 30 5
0 13 18 16 40 4 22 10 40 14 40 4 0 10 18 14 40 3 22 11 40 16 40 5 0 13 18
16 40 4 22 11 43 15 46 5 3 9 14 9 25 0 10 4 19 9 19 5 0 12 14 16 30 4 17 11
30 16 30 5 0 12 18 15 40 4 22 10 40 15 40 5 0 9 7 9 15 0 8 5 15 10 15 6 0
10 6 10 13 1 6 9 30 20 52 11 22 19 46 20 53 0 6 4 12 10 12 5 0 12 11 16 25
3 14 10 25 15 25 5 0 9 9 9 20 0 11 5 20 10 20 6 0 10 6 10 14 0 8 6 21 14 28
7 8 17 24 20 36 4 12 11 22 16 22 5 0 11 14 15 30 4 17 11 30 16 30 5 0 9 7 9
15 0 8 4 15 9 15 5 0 13 10 17 22 3 12 13 28 20 36 8 7 14 22 14 33 0 11 5 17
10 14 6 -3 10 1 10 9 0 9 4 16 10 16 5 0 12 11 16 24 3 14 12 27 20 30 8 3 14
12 14 21 0 8 4 15 10 15 5 0 12 11 16 25 3 14 10 25 15 25 5 0 9 5 9 11 0 6
14 24 30 41 17 16 28 34 24 39 -3 5 2 12 10 15 9 3 16 10 16 15 0 6 5 15 10
22 6 7 24 27 40 46 16 19 32 43 36 53 3 10 10 15 16 12 6 -4 8 -2 4 4 -3 6 9
26 29 45 19 19 35 41 35 51 0 9 4 16 9 16 12 0 71 62 71 74 0 5 16 23 35 42
19 18 35 35 35 38 0 3 8 15 18 25 9 11 46 51 82 90 120 132 488 501 500 501 6
0 9 4 6 8 -2 4 11 18 30 31 18 13 31 27 28 32 -3 5 -1 8 4 7 5 -2 21 9 35 25
14 15 31 27 37 27 5 0 10 7 10 16 0 8 5 12 10 9 6 -3 10 -1 10 4 0 6 5 11 10
11 6 0 33 23 60 50 28 28 50 47 50 43 0 -4 15 8 34 27 43 44 57 54 79 63 10 4
15 11 12 17 -3 5 -1 10 5 10 6 0 16 5 23 10 7 6 23 20 37 31 14 11 37 31 52
45 15 13 33 24 39 24 5 0 7 5 4 10 -3 6 1 10 9 10 9 0 25 9 36 20 11 11 24 20
28 20 4 0 14 9 22 20 8 11 19 20 25 20 6 0 18 8 27 18 24 24 40 37 61 45 9 3
17 10 17 15 0 5 16 17 35 28 19 10 35 22 35 26 0 5 6 8 14 8 7 0 22 11 32 25
10 14 24 25 31 25 6 0 19 8 29 18 10 9 20 17 24 17 5 0 21 12 55 43 7 6 18 12
23 12 6 0 12 7 16 15 3 8 14 15 25 15 10 0 21 7 25 15 3 8 12 15 21 15 8 0 15
4 15 9 0 5 9 13 20 16 11 4 17 11 14 17 -4 6 -2 8 4 4 6 -3 16 0 24 7 7 7 21
16 31 20 9 3 17 11 17 17 0 5 7 10 15 10 8 0 25 11 38 24 13 13 35 27 48 31
13 4 26 10 29 14 9 10 69 51 76 51 4 0 14 8 23 19 9 10 27 22 40 26 23 7 34
14 66 43 7 6 18 12 23 12 5 0 21 11 36 25 15 14 33 25 41 25 8 0 18 6 22 13 4
6 25 20 46 29 20 10 37 22 37 27 0 5 14 12 30 16 16 4 30 10 30 15 0 5 10 12
22 16 12 3 28 13 36 20 7 8 20 14 28 14 8 0 14 5 14 10 0 6 7 10 15 10 8 0 15
4 15 8 0 4 12 13 28 19 31 13 105 55 112 64 3 4 15 9 28 13 12 4 22 11 22 16
0 4 11 11 25 14 14 4 25 10 25 15 0 5 14 12 30 16 17 4 30 11 30 16 0 5 7 9
15 9 8 0 15 4 15 9 0 5 11 12 25 15 14 4 25 10 25 15 0 5 14 12 30 16 17 4 30
11 30 16 0 5 9 9 20 9 11 0 20 3 20 8 0 4 25 18 55 31 30 14 55 28 55 32 0 4
14 10 30 14 17 4 30 11 30 16 0 5 7 9 15 9 8 0 15 4 15 9 0 5 14 12 30 16 17
4 30 11 30 16 0 5 9 9 20 9 11 0 23 7 26 15 4 8 17 15 30 15 13 0 24 4 24 9 0
5 11 12 25 15 14 4 25 11 25 16 0 6 9 10 19 10 11 0 26 7 34 15 8 7 26 17 41
21 14 3 26 10 26 15 0 5 7 9 15 9 8 0 15 5 15 10 0 6 7 10 16 10 17 0 105 40
114 52 3 3 18 10 33 13 15 4 27 11 27 16 0 5 5 9 12 9 18 0 88 33 88 42 0 4
11 8 25 8 14 0 28 7 31 15 4 8 17 15 30 15 13 0 24 5 24 10 0 6 9 10 19 10 11
0 26 7 35 15 8 8 29 18 45 21 17 4 31 10 31 14 0 5 14 11 30 15 17 4 30 11 30
16 0 5 12 9 26 9 14 0 23 4 19 10 -3 6 1 10 11 10 19 0 107 41 112 53 2 4 15
7 28 7 13 0 24 5 24 10 0 6 7 10 15 10 16 0 107 41 115 52 3 3 22 9 43 13 20
4 37 10 37 14 0 7 45 27 83 37 15 3 27 10 27 15 0 5 7 9 16 9 17 0 86 30 94
41 3 3 22 9 43 13 20 4 37 11 37 16 0 6 7 10 16 10 14 0 89 30 126 50 10 6 25
10 33 10 8 0 15 5 15 10 0 6 7 10 16 10 15 0 40 9 119 45 17 7 42 16 58 19 15
4 27 11 27 16 0 6 11 10 25 10 14 0 25 5 25 10 0 6 11 10 24 10 14 0 31 6 38
13 7 8 30 17 51 21 20 4 37 11 37 16 0 6 12 10 26 10 14 0 23 4 19 10 -4 6 8
10 29 10 19 0 41 6 48 14 8 7 33 17 56 21 23 4 42 10 42 15 0 4 16 11 35 14
19 4 35 11 35 16 0 6 14 10 30 10 17 0 30 4 30 9 0 5 18 11 40 15 22 3 40 10
40 15 0 5 18 11 40 15 22 3 40 11 40 16 0 6 14 10 30 10 17 0 30 4 30 10 0 5
16 12 35 16 19 3 38 10 41 15 3 5 15 9 27 9 13 0 31 6 42 14 11 7 39 17 63 21
23 4 42 11 42 16 0 5 12 9 26 9 14 0 23 4 19 10 -4 6 7 10 25 10 17 0 43 6 58
14 15 7 44 16 65 20 20 4 37 11 37 16 0 6 12 10 26 10 14 0 23 4 20 9 -3 4 16
11 42 14 26 3 61 13 77 21 17 9 36 16 43 16 7 0 20 4 30 9 19 11 73 25 85 23
4 -1 7 3 7 8 0 6 14 10 30 10 17 0 30 4 30 9 0 5 18 11 40 15 22 3 40 11 40
16 0 6 18 10 39 10 22 0 46 7 55 15 8 8 23 15 33 15 10 0 46 10 78 21 72 26
112 37 143 38 l23 1 -5 -317z m1523 -1158 c5 2 11 -44 14 -102 3 -64 9 -109
16 -111 6 -2 11 -30 11 -68 0 -36 4 -64 10 -64 6 0 10 -20 10 -44 0 -65 12
-136 21 -130 5 3 9 -16 9 -43 1 -26 6 -68 11 -93 6 -25 13 -60 16 -77 3 -18 9
-33 13 -33 4 0 10 -32 12 -71 4 -45 11 -75 19 -80 8 -5 11 -9 8 -9 -3 0 0 -30
8 -67 8 -38 19 -92 25 -120 6 -29 15 -53 20 -53 4 0 8 -18 8 -39 0 -22 4 -42
9 -45 5 -3 12 -27 16 -53 4 -27 10 -52 15 -58 4 -5 10 -30 13 -55 3 -24 11
-46 16 -48 6 -2 11 -19 11 -37 0 -19 4 -36 9 -39 5 -3 12 -26 15 -51 4 -25 11
-43 17 -40 5 4 9 -9 9 -29 0 -39 9 -68 19 -62 4 3 8 -7 9 -22 3 -40 33 -132
43 -132 5 0 9 -11 9 -25 0 -13 9 -47 20 -75 11 -28 20 -60 20 -70 0 -11 5 -20
10 -20 6 0 10 -11 10 -25 0 -14 4 -25 9 -25 5 0 12 -16 15 -35 4 -19 13 -47
21 -62 8 -15 15 -36 15 -45 0 -10 4 -18 9 -18 5 0 12 -16 15 -35 4 -19 11 -35
16 -35 6 0 9 -3 8 -7 -5 -13 35 -123 44 -123 4 0 8 -10 8 -23 0 -12 6 -31 13
-42 8 -11 22 -44 32 -72 11 -29 23 -53 27 -53 4 0 8 -8 8 -17 0 -20 60 -146
72 -151 4 -2 8 -11 8 -19 0 -15 39 -102 50 -113 3 -3 6 -14 8 -25 2 -11 10
-25 18 -31 8 -6 14 -21 14 -33 0 -11 3 -21 8 -21 4 0 15 -21 26 -48 10 -26 25
-52 33 -59 8 -6 14 -14 14 -17 -3 -21 1 -26 12 -20 6 4 9 4 5 0 -8 -9 11 -66
22 -66 5 0 11 -13 15 -30 4 -16 10 -30 13 -30 4 0 16 -20 26 -44 11 -25 23
-43 26 -41 3 2 7 -5 7 -16 2 -19 40 -81 55 -87 4 -2 8 -10 8 -18 0 -8 10 -31
23 -52 13 -20 26 -45 30 -54 3 -10 11 -18 16 -18 5 0 12 -11 15 -25 4 -14 14
-34 24 -44 9 -9 28 -40 42 -67 13 -27 27 -51 30 -54 8 -8 60 -89 60 -94 0 -10
-67 -34 -110 -39 -24 -3 -46 -11 -48 -16 -2 -6 -26 -11 -53 -11 -27 0 -49 -4
-49 -10 0 -5 -16 -10 -35 -10 -19 0 -54 -6 -77 -14 -24 -8 -76 -17 -115 -21
-40 -4 -73 -11 -73 -16 0 -5 -20 -9 -45 -9 -25 0 -45 -4 -45 -9 0 -5 -42 -11
-92 -15 -124 -8 -122 -8 -133 -16 -5 -4 -66 -11 -135 -15 -69 -4 -134 -12
-145 -18 -22 -13 -930 -16 -1000 -4 -92 16 -184 26 -253 26 -40 1 -71 5 -68
10 6 10 -65 21 -135 21 -26 0 -50 4 -53 9 -3 5 -23 11 -43 14 -170 26 -215 46
-180 82 9 9 17 23 17 31 0 8 5 14 10 14 6 0 10 6 10 14 0 8 7 16 15 20 8 3 15
14 15 25 0 10 7 21 15 25 8 3 15 12 15 21 0 8 4 15 9 15 5 0 13 10 17 23 4 12
9 24 13 27 9 7 51 81 64 113 6 15 15 27 19 27 4 0 8 7 8 15 0 8 3 15 8 15 9 0
58 102 54 113 -1 5 1 6 6 3 7 -4 41 57 44 81 1 5 8 14 15 21 7 7 13 20 13 28
0 8 4 14 10 14 5 0 12 11 16 25 3 14 10 25 15 25 5 0 9 9 9 20 0 11 4 20 9 20
5 0 12 13 16 30 4 16 10 32 15 35 14 8 50 85 50 105 0 11 5 20 10 20 6 0 10 7
10 15 0 8 5 15 10 15 6 0 10 9 10 19 0 11 5 23 10 26 6 4 8 11 5 16 -4 5 -2 9
4 9 6 0 13 16 17 35 3 20 9 33 12 30 7 -7 41 64 42 88 0 9 5 17 10 17 6 0 10
6 10 13 1 6 9 30 20 52 11 22 19 46 20 53 0 6 5 12 10 12 6 0 10 10 10 23 0
12 7 31 15 41 8 11 15 28 15 38 0 10 5 18 10 18 6 0 10 8 10 18 1 9 9 35 20
57 11 22 19 50 20 63 0 13 4 20 10 17 6 -3 10 3 10 14 0 11 4 22 9 25 5 3 12
21 15 40 4 20 13 48 21 63 8 15 15 38 15 51 0 12 4 22 8 22 11 0 42 89 42 118
0 13 4 21 9 18 10 -6 21 26 21 62 0 12 4 22 9 22 5 0 12 15 16 33 3 17 10 41
14 52 19 46 41 121 41 138 0 9 4 17 9 17 5 0 12 20 15 45 4 24 11 47 17 50 5
4 9 22 9 41 0 19 4 34 9 34 5 0 12 22 16 50 4 27 11 52 15 55 4 3 11 29 15 58
4 28 12 55 18 59 6 3 13 34 15 67 2 34 8 61 13 61 5 0 9 11 9 24 0 14 4 27 9
31 5 3 12 31 16 63 3 31 11 66 17 76 5 11 13 46 15 78 3 32 10 58 14 58 5 0 9
15 9 33 0 17 7 51 15 74 8 23 15 65 16 92 1 28 5 48 9 46 8 -5 20 68 20 121 0
19 4 34 8 34 11 0 33 145 39 253 2 42 8 75 12 72 5 -2 13 42 19 100 11 110 25
154 30 97 2 -18 7 -30 11 -27z m2769 -5605 c88 -88 162 -160 166 -160 3 0 25
-19 50 -42 24 -24 50 -49 58 -55 7 -7 27 -26 43 -43 17 -16 33 -30 37 -30 4 0
32 -24 61 -52 29 -29 75 -71 102 -93 27 -22 54 -46 61 -52 7 -7 15 -13 18 -13
2 0 21 -16 42 -35 20 -19 40 -32 45 -29 5 3 9 -2 9 -10 0 -9 4 -16 10 -16 10
0 31 -16 78 -58 14 -12 39 -33 55 -45 16 -12 35 -28 42 -34 8 -7 17 -13 22
-13 5 0 16 -8 25 -17 26 -28 46 -43 58 -43 5 0 10 -4 10 -9 0 -5 17 -20 38
-32 20 -13 41 -29 45 -36 4 -7 15 -13 22 -13 8 0 15 -4 15 -10 0 -5 5 -10 10
-10 12 0 32 -15 58 -42 9 -10 22 -18 29 -18 7 0 13 -4 13 -8 0 -5 16 -17 35
-28 19 -10 35 -22 35 -26 0 -5 7 -8 15 -8 7 0 18 -6 22 -13 4 -7 25 -24 46
-36 37 -23 38 -24 19 -41 -10 -10 -28 -21 -40 -24 -12 -4 -22 -12 -22 -17 0
-5 -9 -9 -20 -9 -11 0 -20 -4 -20 -9 0 -5 -16 -12 -35 -15 -19 -4 -35 -11 -35
-16 0 -4 -13 -11 -30 -15 -16 -4 -30 -10 -30 -15 0 -5 -13 -11 -30 -15 -16 -4
-30 -11 -30 -16 0 -5 -9 -9 -21 -9 -11 0 -18 -4 -15 -9 3 -5 -12 -11 -34 -15
-22 -3 -40 -10 -40 -16 0 -5 -16 -12 -35 -16 -19 -3 -35 -9 -35 -13 0 -7 -45
-27 -82 -37 -16 -3 -28 -10 -28 -15 0 -5 -9 -9 -19 -9 -11 0 -26 -7 -35 -15
-8 -8 -21 -15 -29 -15 -23 0 -47 -11 -43 -19 3 -4 -7 -8 -22 -9 -15 -1 -28 -7
-30 -12 -2 -6 -14 -10 -27 -10 -13 0 -30 -6 -37 -13 -7 -8 -30 -17 -50 -21
-20 -4 -38 -11 -40 -16 -2 -5 -19 -12 -38 -15 -19 -3 -36 -10 -38 -16 -2 -5
-14 -9 -27 -9 -13 0 -25 -3 -27 -7 -1 -5 -36 -19 -75 -33 -40 -13 -73 -28 -73
-32 0 -4 -16 -8 -35 -8 -19 0 -35 -4 -35 -9 0 -5 -17 -12 -37 -16 -21 -4 -40
-10 -43 -15 -3 -4 -20 -10 -39 -13 -18 -3 -38 -10 -44 -16 -6 -6 -23 -11 -38
-11 -15 0 -34 -7 -43 -15 -8 -8 -26 -15 -40 -15 -14 0 -26 -4 -26 -9 0 -4 -21
-11 -46 -14 -26 -2 -49 -9 -53 -14 -3 -6 -28 -13 -56 -17 -27 -3 -51 -11 -53
-16 -2 -6 -17 -10 -33 -10 -18 0 -28 -4 -24 -10 4 -6 -11 -10 -37 -10 -24 0
-52 -6 -63 -14 -11 -7 -46 -16 -77 -20 -32 -4 -58 -11 -58 -16 0 -4 -27 -11
-60 -15 -33 -4 -60 -11 -60 -16 0 -5 -18 -9 -40 -9 -22 0 -40 -4 -40 -9 0 -5
-26 -12 -57 -16 -32 -4 -62 -10 -68 -15 -5 -4 -36 -11 -67 -14 -32 -4 -58 -11
-58 -15 0 -3 -12 -7 -27 -8 -74 -5 -133 -15 -133 -23 0 -4 -21 -11 -47 -14
-162 -18 -217 -27 -222 -34 -3 -5 -53 -12 -111 -16 -58 -3 -106 -11 -108 -16
-2 -6 -33 -10 -68 -10 -35 0 -64 -4 -64 -8 0 -5 -67 -12 -150 -15 -82 -3 -158
-11 -168 -16 -10 -5 -129 -13 -263 -16 -134 -4 -253 -11 -264 -16 -36 -17
-1083 12 -1095 31 -6 8 -128 19 -242 21 -43 1 -78 6 -78 10 0 5 -24 9 -53 9
-29 0 -58 5 -63 10 -6 6 -60 14 -120 17 -61 3 -112 11 -116 17 -4 6 -43 12
-88 14 -44 2 -80 8 -80 13 0 5 -24 9 -54 9 -31 0 -56 5 -58 11 -2 6 -35 13
-73 16 -39 3 -72 10 -75 14 -3 5 -30 11 -60 15 -30 3 -59 10 -65 14 -5 4 -38
11 -72 15 -35 4 -63 11 -63 16 0 5 -15 9 -32 9 -18 0 -51 7 -73 15 -22 8 -55
14 -72 15 -18 0 -33 4 -33 9 0 5 -26 12 -57 16 -32 4 -61 11 -64 16 -3 5 -29
12 -57 16 -29 3 -52 10 -52 14 0 5 -15 9 -34 9 -19 0 -36 5 -38 11 -2 6 -26
13 -53 16 -28 3 -53 10 -56 15 -3 5 -25 12 -48 15 -22 3 -41 10 -41 14 0 5
-15 9 -34 9 -19 0 -36 5 -38 11 -2 5 -22 13 -46 16 -23 3 -42 9 -42 14 0 5
-18 12 -40 15 -22 4 -40 10 -40 14 0 4 -20 11 -45 14 -24 4 -47 11 -50 17 -4
5 -17 9 -31 9 -13 0 -24 4 -24 9 0 6 -20 13 -45 17 -25 3 -43 10 -40 14 3 5
-15 12 -40 15 -25 4 -45 11 -45 16 0 5 -9 9 -19 9 -11 0 -22 4 -25 9 -3 5 -22
12 -41 15 -19 4 -35 11 -35 15 0 5 -17 12 -37 16 -20 4 -46 13 -57 21 -11 8
-31 14 -43 14 -13 0 -23 5 -23 10 0 6 -11 10 -25 10 -14 0 -25 4 -25 10 0 5
-18 13 -39 16 -22 4 -42 13 -45 20 -3 8 -17 14 -31 14 -14 0 -25 4 -25 9 0 5
-14 12 -30 16 -16 4 -30 11 -30 16 0 5 -11 9 -25 9 -14 0 -25 4 -25 10 0 5
-16 12 -35 16 -19 3 -35 10 -35 14 0 4 -9 10 -20 13 -28 7 -25 23 10 44 16 9
30 21 30 25 0 4 6 8 14 8 8 0 21 6 28 13 18 16 107 77 114 77 5 0 19 11 49 38
7 6 18 12 24 12 6 0 11 5 11 10 0 6 4 10 10 10 9 0 100 65 110 79 3 4 12 10
20 14 27 12 55 32 77 55 13 13 23 20 23 17 0 -6 156 110 175 131 6 6 21 17 35
26 28 17 65 47 111 91 16 15 33 27 37 27 4 0 18 10 32 23 14 12 38 33 55 45
33 26 118 99 174 149 20 18 40 33 44 33 5 0 6 4 3 9 -3 5 4 11 15 14 13 4 18
10 13 18 -4 7 -3 10 3 6 6 -4 24 8 41 26 16 17 52 50 78 72 26 22 97 88 156
147 59 59 124 119 143 134 19 14 35 32 35 38 0 24 46 39 81 27 17 -6 43 -11
55 -11 13 0 24 -4 24 -8 0 -9 91 -42 115 -42 7 0 26 -7 41 -15 16 -8 44 -15
62 -15 20 0 31 -4 27 -10 -4 -6 6 -10 22 -10 16 0 33 -4 39 -10 5 -5 32 -13
59 -16 28 -4 53 -11 56 -16 3 -5 31 -12 62 -15 31 -3 54 -9 52 -13 -5 -7 90
-26 108 -22 4 1 7 -3 7 -8 0 -6 20 -10 44 -10 24 0 46 -4 48 -9 2 -5 32 -14
68 -20 63 -10 173 -30 275 -50 28 -5 76 -10 108 -10 31 -1 57 -5 57 -10 0 -4
28 -11 63 -15 34 -3 89 -10 122 -15 33 -5 103 -10 155 -10 63 -1 100 -5 108
-13 17 -17 919 -24 1077 -8 61 6 173 15 250 20 77 5 162 14 188 20 26 5 64 10
82 10 19 0 35 4 35 8 0 4 32 9 71 10 38 2 93 8 122 13 29 6 81 14 117 19 36 5
81 14 100 19 19 6 61 13 93 16 31 4 57 10 57 15 0 4 24 10 53 13 61 6 170 28
177 36 3 3 12 7 20 8 74 8 110 16 110 24 0 5 16 9 35 9 19 0 56 7 82 15 93 29
108 33 150 40 24 4 45 11 49 16 3 5 15 9 27 9 30 0 137 33 137 42 0 4 13 8 28
8 15 0 53 9 85 20 31 11 63 20 72 20 8 0 15 5 15 10 0 6 3 9 8 8 9 -2 72 13
92 22 30 15 75 28 101 29 22 1 57 -29 187 -159z m-7272 -3204 c22 -8 64 -24
94 -35 30 -12 63 -21 72 -21 10 0 18 -4 18 -8 0 -4 33 -19 73 -32 39 -13 77
-27 82 -31 11 -7 71 -21 81 -19 4 1 10 -2 13 -7 3 -5 33 -17 66 -27 33 -11 74
-25 92 -33 17 -7 43 -13 57 -13 14 0 26 -4 26 -10 0 -5 18 -13 40 -16 22 -4
43 -11 46 -15 3 -5 15 -9 28 -9 13 0 36 -7 53 -15 16 -8 42 -16 57 -17 14 -1
26 -5 26 -9 0 -4 20 -10 45 -13 24 -4 47 -11 50 -17 4 -5 22 -9 41 -9 19 0 34
-4 34 -9 0 -4 21 -13 48 -19 26 -6 73 -17 104 -24 31 -7 60 -17 64 -21 7 -7
103 -23 117 -19 4 1 7 -3 7 -8 0 -6 10 -10 23 -10 12 0 40 -7 62 -15 22 -8 56
-14 76 -15 19 0 39 -4 45 -10 5 -5 32 -12 59 -16 28 -3 59 -9 70 -14 11 -5 34
-11 50 -14 101 -17 154 -28 182 -37 17 -5 56 -12 85 -15 29 -3 62 -10 73 -14
22 -10 141 -30 220 -37 28 -2 59 -8 70 -13 11 -5 58 -14 105 -20 47 -7 135
-18 195 -26 61 -8 151 -19 200 -24 50 -5 101 -11 115 -14 14 -4 86 -11 160
-16 74 -6 185 -15 245 -20 61 -5 206 -10 323 -11 116 0 212 -5 212 -10 0 -5
102 -9 230 -9 135 0 230 4 230 9 0 6 88 10 208 11 114 1 257 5 317 10 61 5
175 14 255 20 80 6 161 15 180 20 19 6 57 10 84 10 28 0 75 4 105 10 31 5 94
15 141 21 47 6 119 15 160 20 41 5 84 14 95 19 11 5 45 11 75 14 30 3 91 12
135 20 44 9 111 21 150 27 38 6 72 14 75 18 3 5 33 11 68 14 35 4 71 11 82 17
10 5 33 10 50 10 17 0 29 4 26 8 -2 4 12 9 32 10 20 2 55 7 77 13 117 29 162
40 185 45 14 3 34 9 45 14 11 5 41 11 67 15 26 3 50 10 53 14 2 5 26 12 51 16
26 4 54 10 63 15 15 7 59 20 186 55 33 9 69 20 80 25 11 5 35 12 53 15 17 4
32 11 32 16 0 5 15 9 34 9 19 0 37 4 40 9 4 5 24 12 46 16 22 4 40 11 40 16 0
5 12 9 28 9 15 0 39 6 54 14 15 8 41 17 59 21 32 7 41 11 89 35 11 6 28 10 37
10 10 0 30 6 44 14 14 7 37 16 51 19 14 4 33 9 41 13 12 4 13 -2 4 -40 -6 -25
-14 -46 -19 -46 -4 0 -8 -9 -8 -19 0 -11 -4 -21 -9 -23 -10 -4 -81 -150 -81
-167 0 -6 -3 -11 -7 -11 -5 0 -17 -19 -28 -43 -11 -23 -22 -44 -25 -47 -4 -3
-16 -24 -27 -47 -32 -61 -46 -86 -60 -101 -7 -7 -13 -20 -13 -28 0 -8 -4 -14
-10 -14 -5 0 -12 -11 -16 -25 -3 -14 -10 -25 -15 -25 -5 0 -9 -7 -9 -15 0 -8
-4 -15 -10 -15 -5 0 -10 -6 -10 -14 0 -8 -6 -21 -14 -28 -7 -8 -17 -24 -20
-36 -4 -12 -12 -22 -17 -22 -5 0 -9 -6 -9 -14 0 -8 -7 -16 -15 -20 -8 -3 -15
-12 -15 -21 0 -8 -4 -15 -10 -15 -5 0 -12 -11 -16 -25 -3 -14 -10 -22 -15 -19
-5 3 -9 -2 -9 -11 0 -8 -7 -18 -15 -21 -8 -4 -15 -15 -15 -25 0 -10 -5 -19
-10 -19 -6 0 -14 -8 -17 -17 -4 -10 -19 -31 -35 -46 -15 -16 -28 -32 -28 -35
0 -4 -13 -22 -29 -41 -17 -19 -27 -39 -24 -44 3 -6 1 -7 -5 -3 -7 4 -12 3 -12
-2 0 -5 -14 -24 -30 -43 -17 -19 -49 -56 -73 -82 -23 -26 -51 -57 -61 -68 -11
-10 -16 -19 -12 -19 4 0 -6 -11 -21 -25 -38 -33 -51 -46 -144 -141 -6 -7 -24
-25 -40 -40 -15 -16 -39 -38 -52 -49 -46 -38 -130 -110 -158 -137 -15 -14 -37
-29 -48 -33 -12 -3 -21 -11 -21 -16 0 -5 -7 -9 -16 -9 -8 0 -12 -4 -9 -10 3
-5 0 -10 -8 -10 -8 0 -26 -10 -40 -22 -63 -56 -80 -68 -93 -68 -8 0 -14 -4
-14 -10 0 -5 -7 -10 -15 -10 -9 0 -18 -6 -21 -14 -3 -7 -27 -24 -54 -37 -27
-13 -52 -32 -56 -43 -5 -15 -8 -16 -15 -5 -6 10 -9 10 -9 2 0 -7 -11 -15 -25
-19 -14 -3 -25 -10 -25 -14 0 -4 -11 -11 -25 -14 -14 -4 -25 -11 -25 -16 0 -6
-9 -10 -20 -10 -11 0 -20 -4 -20 -9 0 -5 -11 -12 -25 -15 -14 -4 -25 -10 -25
-15 0 -5 -13 -12 -30 -16 -16 -4 -30 -11 -30 -15 0 -5 -16 -12 -35 -16 -19 -3
-35 -10 -35 -15 0 -5 -7 -9 -15 -9 -8 0 -15 -4 -15 -10 0 -5 -10 -10 -23 -10
-12 0 -31 -6 -42 -14 -11 -7 -32 -16 -47 -20 -16 -3 -28 -11 -28 -16 0 -6 -11
-10 -25 -10 -14 0 -25 -4 -25 -10 0 -5 -10 -10 -22 -10 -13 0 -36 -7 -52 -15
-16 -8 -43 -18 -60 -21 -17 -3 -32 -9 -34 -15 -2 -5 -11 -9 -20 -9 -17 0 -105
-26 -132 -40 -9 -4 -39 -11 -68 -15 -29 -4 -52 -10 -52 -15 0 -4 -25 -11 -55
-15 -30 -3 -55 -11 -55 -16 0 -5 -24 -9 -54 -9 -30 0 -56 -4 -58 -9 -2 -5 -32
-12 -68 -16 -36 -4 -67 -11 -70 -15 -3 -4 -45 -9 -93 -12 -49 -2 -92 -9 -95
-15 -4 -6 -85 -13 -192 -18 -102 -4 -191 -7 -197 -8 -7 0 -13 -4 -13 -9 0 -11
-534 -10 -545 1 -6 5 -100 13 -210 16 -110 4 -203 12 -206 17 -3 5 -53 12
-110 15 -57 4 -97 9 -89 12 13 5 -75 21 -210 38 -25 3 -48 9 -51 14 -3 5 -33
12 -67 15 -34 4 -62 10 -62 15 0 4 -25 11 -55 14 -30 4 -55 11 -55 16 0 5 -18
9 -40 9 -22 0 -40 4 -40 9 0 5 -20 12 -45 15 -25 4 -45 11 -45 16 0 5 -21 12
-47 16 -27 4 -51 11 -54 16 -3 5 -25 12 -48 15 -22 3 -41 10 -41 14 0 5 -11 9
-25 9 -14 0 -25 4 -25 10 0 5 -17 12 -37 16 -21 4 -44 13 -51 21 -7 7 -21 13
-31 13 -22 0 -71 23 -71 33 0 4 -6 7 -12 7 -7 1 -31 9 -53 20 -22 11 -46 19
-52 20 -7 0 -13 4 -13 10 0 5 -16 12 -35 16 -19 3 -32 10 -29 15 3 5 -6 9 -20
9 -14 0 -26 4 -26 9 0 5 -11 12 -25 15 -14 4 -25 11 -25 16 0 5 -16 12 -35 16
-19 3 -32 10 -29 15 3 5 -2 9 -10 9 -9 0 -16 4 -16 9 0 5 -13 12 -30 16 -16 4
-30 10 -30 15 0 5 -10 12 -22 16 -12 3 -28 13 -36 20 -7 8 -20 14 -28 14 -8 0
-14 5 -14 10 0 6 -7 10 -15 10 -8 0 -15 4 -15 9 0 5 -10 13 -22 17 -12 3 -26
10 -32 15 -49 41 -60 49 -70 49 -7 0 -18 9 -26 20 -8 11 -19 20 -26 20 -10 0
-24 10 -71 50 -7 5 -15 10 -18 10 -7 0 -31 19 -53 43 -9 9 -20 17 -25 17 -9 0
-28 14 -66 53 -16 15 -31 27 -34 27 -4 0 -20 12 -36 28 -16 15 -50 45 -75 67
-26 22 -74 67 -109 100 -35 33 -84 78 -109 100 -26 21 -45 42 -43 46 3 3 -21
31 -53 62 -65 64 -98 100 -128 139 -12 15 -24 24 -28 21 -3 -3 -6 1 -6 11 0 9
-7 19 -15 22 -8 4 -15 13 -15 21 0 8 -4 11 -10 8 -5 -3 -10 1 -10 9 0 8 -16
30 -35 49 -19 19 -35 39 -35 45 0 7 -9 17 -20 24 -11 7 -20 18 -20 24 0 6 -16
28 -35 48 -19 21 -35 42 -35 47 0 6 -6 16 -12 23 -34 35 -57 66 -63 85 -3 12
-11 21 -16 21 -5 0 -9 5 -9 11 0 7 -11 22 -25 35 -14 13 -25 27 -25 31 0 5 -6
15 -14 24 -8 9 -17 26 -21 38 -3 12 -11 21 -16 21 -5 0 -9 7 -9 15 0 8 -4 15
-9 15 -5 0 -12 11 -15 25 -4 14 -11 25 -16 25 -6 0 -10 7 -10 15 0 9 -11 27
-24 40 -13 13 -27 37 -31 54 -3 16 -13 32 -21 35 -8 3 -14 15 -14 26 0 11 -4
20 -9 20 -5 0 -12 11 -15 25 -4 14 -11 23 -16 20 -6 -3 -10 0 -10 9 0 15 -30
77 -42 86 -3 3 -10 17 -13 33 -4 15 -11 24 -16 21 -5 -3 -9 4 -9 15 0 12 -4
21 -9 21 -6 0 -9 9 -8 20 1 11 2 20 3 20 1 0 19 -6 40 -14z"/>
</g>
</svg>
